<svg id="SvgjsSvg1006" width="1000" height="500" xmlns="http://www.w3.org/2000/svg" version="1.1" xmlns:xlink="http://www.w3.org/1999/xlink" xmlns:svgjs="http://svgjs.com/svgjs" viewBox="0 0 1000 500"><defs id="SvgjsDefs1007"></defs><svg id="SvgjsSvg1008" style="overflow: visible;"></svg><rect id="SvgjsRect1009" width="1000" height="500" fill="#270ac5"></rect><circle id="SvgjsCircle1010" r="347.9799356190494" cx="609.0851237290963" cy="466.548638446274" fill="#deda3c" opacity="0.3569939328695625"></circle><polygon id="SvgjsPolygon1011" points="-149.80575726896018,-115.43943509822662 -397.64341885003637,8.897258898548728 41.602224115475565,-201.98764403308144" fill="#0c2e88" opacity="0.08705316895716819"></polygon><circle id="SvgjsCircle1012" r="226.851914312859" cx="490.4144993421248" cy="149.97079191616012" fill="#fa49e4" opacity="0.17769236017109136"></circle><circle id="SvgjsCircle1013" r="264.20830036118315" cx="107.95198843285584" cy="-147.02024082340006" fill="#b7fdb8" opacity="0.2871348412604765"></circle><circle id="SvgjsCircle1014" r="384.7251382152871" cx="390.31486660379505" cy="228.51497216041912" fill="#ab481e" opacity="0.30133705270710287"></circle><circle id="SvgjsCircle1015" r="220.92082919415347" cx="-557.9039238577388" cy="-366.16457920021327" fill="#711a0e" opacity="0.21597681170887262"></circle><polygon id="SvgjsPolygon1016" points="-260.3843264823888,-293.05969401897204 348.241245639568,498.84721806588004 998.6721777265534,-125.42409971229176" fill="#6639c9" opacity="0.476643039455554"></polygon><circle id="SvgjsCircle1017" r="389.1305332890036" cx="787.9874459963321" cy="84.18846348323746" fill="#4e440a" opacity="0.30906577132844637"></circle><polygon id="SvgjsPolygon1018" points="-349.94959952413933,-473.4192849642378 151.55593647113278,185.41230117387374 864.6360982886042,-87.34693989840702" fill="#1007d4" opacity="0.33262314539740123"></polygon><circle id="SvgjsCircle1019" r="272.5782347814443" cx="707.7005493152888" cy="-355.74644991788375" fill="#3c173d" opacity="0.21758783908692114"></circle><circle id="SvgjsCircle1020" r="130.92782851372377" cx="-303.27112964393655" cy="-424.7578313897531" fill="#723f9c" opacity="0.30548483744660326"></circle><circle id="SvgjsCircle1021" r="352.66673274822733" cx="204.32906902541163" cy="-161.54033677098113" fill="#ece71f" opacity="0.21790596494843706"></circle><circle id="SvgjsCircle1022" r="205.8700514602071" cx="867.2239937109257" cy="399.42285187813127" fill="#3c5a5a" opacity="0.22427486571411603"></circle><circle id="SvgjsCircle1023" r="33.19676624367751" cx="-422.6809430387668" cy="-364.00502104808743" fill="#2a9e81" opacity="0.010465407703529772"></circle><polygon id="SvgjsPolygon1024" points="-99.18485044795,235.23493420412115 -679.5226630606556,-162.1930634867088 -274.3330194048665,-203.78833051342514" fill="#14d631" opacity="0.297192258898179"></polygon><polygon id="SvgjsPolygon1025" points="-216.72797567781026,330.8984953632446 632.1245054992671,171.66539282264102 -311.9859782941967,-88.9758230539428" fill="#2d45aa" opacity="0.08641970805695154"></polygon><polygon id="SvgjsPolygon1026" points="682.7678688039834,-349.2251327557914 762.0298952635044,-435.7648223225052 601.2487334878899,-9.54107455402675" fill="#8484d3" opacity="0.45045361176180776"></polygon><polygon id="SvgjsPolygon1027" points="867.1641054702643,298.4533491891168 940.8660512659792,-141.27605698343814 945.9555269434636,277.5039938627011" fill="#49263d" opacity="0.021680972675961807"></polygon><circle id="SvgjsCircle1028" r="189.5131833219199" cx="-199.64082805516716" cy="-343.33496026662203" fill="#e8378a" opacity="0.032121659444791395"></circle><circle id="SvgjsCircle1029" r="177.3773430532286" cx="371.72025356103154" cy="-476.84483062489136" fill="#314735" opacity="0.13566280302958322"></circle><polygon id="SvgjsPolygon1030" points="-389.5598113987551,455.8465644947345 -101.67689308959461,-442.4706228195026 -13.645432994035673,87.26519631379824" fill="#33b348" opacity="0.39803967565935405"></polygon><polygon id="SvgjsPolygon1031" points="-852.0410248079968,164.20908415542374 600.4063349865482,-253.79561571146846 -360.8829884521758,69.87499890947777" fill="#d65845" opacity="0.44783245709868347"></polygon><circle id="SvgjsCircle1032" r="200.56700146546592" cx="-477.14795017064887" cy="241.86860989528827" fill="#f51415" opacity="0.4141274420545219"></circle><circle id="SvgjsCircle1033" r="45.59107568195342" cx="258.8904224096532" cy="391.80146689434525" fill="#b41756" opacity="0.2859230956419496"></circle><circle id="SvgjsCircle1034" r="299.1757070618458" cx="449.554955886701" cy="383.86170829293803" fill="#493684" opacity="0.2505937657067929"></circle><polygon id="SvgjsPolygon1035" points="-901.9553125132264,-12.793786267829546 457.8171953677743,-296.706680666839 -393.6589028444937,25.845251407173237" fill="#c5b609" opacity="0.48576835986975675"></polygon><circle id="SvgjsCircle1036" r="345.0268904073108" cx="-892.784891489621" cy="-400.96529392698545" fill="#a9852d" opacity="0.27764408849408817"></circle><polygon id="SvgjsPolygon1037" points="780.8522507743558,-169.75128824463684 -449.1605470942068,156.7253977360608 226.893233555204,-8.087975668043669" fill="#f0e5b5" opacity="0.3667249052836127"></polygon><circle id="SvgjsCircle1038" r="89.273777794858" cx="-880.942968315157" cy="-72.29873310661941" fill="#a9d3ab" opacity="0.4694218723289305"></circle><polygon id="SvgjsPolygon1039" points="-79.16462021512768,336.11088616886866 312.6489202672383,-223.5584735696998 836.6774531878148,199.12043267536774" fill="#0c45fa" opacity="0.2749574712998125"></polygon><polygon id="SvgjsPolygon1040" points="-587.1848984903174,480.7767254320918 466.3615674702744,-141.6332287929032 -512.9211565344556,392.11088628540483" fill="#25a639" opacity="0.25211877422781204"></polygon><circle id="SvgjsCircle1041" r="45.943358683173116" cx="683.69201801144" cy="12.247466279486048" fill="#0c650b" opacity="0.33638757685923737"></circle><circle id="SvgjsCircle1042" r="71.52568679206495" cx="267.63440081158" cy="389.94545089690644" fill="#370678" opacity="0.39415313019706744"></circle><polygon id="SvgjsPolygon1043" points="8.293458808617856,-390.0589693479328 810.2354396116359,426.87302473810735 343.3727650570786,-225.16425644822436" fill="#fbcc29" opacity="0.4850998562857579"></polygon><circle id="SvgjsCircle1044" r="393.3914399552841" cx="925.9826583776971" cy="-458.8464770524605" fill="#d6330b" opacity="0.45347280525902944"></circle><polygon id="SvgjsPolygon1045" points="549.8147111596099,341.3311201292113 22.165808919564483,-196.51236868911946 -365.9199677340306,216.06042749510596" fill="#bd4c66" opacity="0.29541797675420356"></polygon><polygon id="SvgjsPolygon1046" points="687.219810848987,-220.35298663412937 930.1163677336738,421.37712553486415 660.2277112375075,422.5275205132739" fill="#5508a0" opacity="0.2641214052314407"></polygon><circle id="SvgjsCircle1047" r="292.3630800958871" cx="-62.998881966868794" cy="-221.6931834734479" fill="#0aafaa" opacity="0.35004237643549607"></circle><circle id="SvgjsCircle1048" r="256.6019976247972" cx="-195.57235696384816" cy="-490.71172671654017" fill="#c664e8" opacity="0.2631923021167445"></circle><circle id="SvgjsCircle1049" r="390.15171714751483" cx="82.08382239842308" cy="465.51847704670956" fill="#a78fc1" opacity="0.18356054603894756"></circle><polygon id="SvgjsPolygon1050" points="486.53799801957075,-448.76828041211115 -894.5697127109091,-208.0610313084099 -380.4771893176402,-302.45805886918413" fill="#e31ac4" opacity="0.07548724530878592"></polygon><circle id="SvgjsCircle1051" r="288.96723256195656" cx="615.5650005015932" cy="219.2407897723723" fill="#9278c8" opacity="0.18856515758844516"></circle><circle id="SvgjsCircle1052" r="335.5817153927523" cx="-36.12943268378467" cy="-173.30048946654597" fill="#87f585" opacity="0.2913391484793195"></circle><circle id="SvgjsCircle1053" r="348.4549785000404" cx="-126.83048984367849" cy="66.43000957442018" fill="#044cd9" opacity="0.17308375517050822"></circle><polygon id="SvgjsPolygon1054" points="-456.3668719142968,308.57891938904675 610.8034780662513,-99.36485014175258 421.09172710848065,132.20109816680474" fill="#31557c" opacity="0.1394960231321959"></polygon><circle id="SvgjsCircle1055" r="94.71218013521276" cx="294.0075200376716" cy="31.110545243784372" fill="#920b67" opacity="0.4129738963710866"></circle><polygon id="SvgjsPolygon1056" points="-758.5783045765511,110.3076751090781 858.9716576714261,-72.6182472887005 -573.3474849267827,299.55113062590135" fill="#0e4103" opacity="0.4356579282410761"></polygon><polygon id="SvgjsPolygon1057" points="-816.0333100116661,287.8355040394554 -584.4437095897734,-41.77859406005189 -843.3670881910014,-386.8569656679102" fill="#5464fd" opacity="0.4723761104722837"></polygon><polygon id="SvgjsPolygon1058" points="350.1213067523356,-162.6900517896479 317.09231224950986,33.12483101191344 -921.5026396866914,-248.40499146307658" fill="#126c1b" opacity="0.05432835164885708"></polygon><circle id="SvgjsCircle1059" r="389.6882053311718" cx="-195.2119133250818" cy="-389.5695315370831" fill="#855a46" opacity="0.1478530279671696"></circle><circle id="SvgjsCircle1060" r="168.51631762744" cx="-608.2762437668991" cy="-172.78225702039293" fill="#a8dcf8" opacity="0.4681626941852879"></circle><circle id="SvgjsCircle1061" r="290.03027386691525" cx="-655.8956973142838" cy="-327.11922826138755" fill="#cb21fd" opacity="0.4441399609305289"></circle><circle id="SvgjsCircle1062" r="258.8819027026569" cx="642.9094618278289" cy="269.1584357642489" fill="#fb518f" opacity="0.40803744507081674"></circle><circle id="SvgjsCircle1063" r="492.5873088398639" cx="319.20405562235874" cy="188.68843881122314" fill="#a03405" opacity="0.03473411980742169"></circle><polygon id="SvgjsPolygon1064" points="884.731778442474,369.1628542472831 253.66332719815296,-335.0703215329975 -960.5204650017654,-48.73265212840329" fill="#9d4009" opacity="0.14181984772937617"></polygon><polygon id="SvgjsPolygon1065" points="-289.013913932739,56.70101201793034 -787.388421087158,463.2662225592958 -860.5816851364963,111.9975102234323" fill="#c5e5cb" opacity="0.053194698603906465"></polygon><polygon id="SvgjsPolygon1066" points="-237.40473496977813,-208.8843009161809 -370.204533004213,230.94064197694536 -865.4229862718933,133.9978352054893" fill="#d705c7" opacity="0.38244854473493484"></polygon><polygon id="SvgjsPolygon1067" points="463.2740439321319,449.4532649900731 -575.4188957283293,-375.1479483821032 780.6882904081479,-313.95400003685324" fill="#653f10" opacity="0.49266701508869637"></polygon><circle id="SvgjsCircle1068" r="459.0805566411523" cx="-870.6868954501763" cy="-123.17370847252016" fill="#2350ae" opacity="0.05627542599426516"></circle><polygon id="SvgjsPolygon1069" points="56.485986816629975,451.18899748784577 -200.5652885998477,147.97429567676159 938.1304333865651,95.82410456553657" fill="#206054" opacity="0.2261447771692624"></polygon><circle id="SvgjsCircle1070" r="394.3840350511451" cx="236.780228091249" cy="197.98096390408705" fill="#aa87e2" opacity="0.3855903572991615"></circle><polygon id="SvgjsPolygon1071" points="604.0151998964761,10.572106973128143 -598.4194738972084,329.6779067548705 920.4926029281828,-126.25059013841809" fill="#b23310" opacity="0.23470493735520426"></polygon><circle id="SvgjsCircle1072" r="457.3363322959335" cx="897.2866929809338" cy="-224.11507672835575" fill="#bfcdc5" opacity="0.07387839460446967"></circle><circle id="SvgjsCircle1073" r="178.20234776069165" cx="-73.00021345713105" cy="115.09530644213567" fill="#85cfa1" opacity="0.13102732932208105"></circle><circle id="SvgjsCircle1074" r="456.3236069541232" cx="417.8393928394248" cy="-321.078660609085" fill="#58c4a6" opacity="0.2597762265222222"></circle><polygon id="SvgjsPolygon1075" points="-319.2336614882354,-268.6048279627349 -448.5791081923462,72.8969856673001 849.3494963301664,16.22780324697476" fill="#f31359" opacity="0.13865275114443532"></polygon><circle id="SvgjsCircle1076" r="456.64847609684034" cx="309.48273821436396" cy="-315.0236595466904" fill="#da90eb" opacity="0.39320581912678054"></circle><polygon id="SvgjsPolygon1077" points="950.3528927132597,-246.87542467437896 994.0960497718731,375.89407443849063 -353.6678435487137,143.29221245224267" fill="#cb6521" opacity="0.11084787721751332"></polygon><circle id="SvgjsCircle1078" r="72.56562745273965" cx="-244.96733230411837" cy="374.40102682773" fill="#316ec9" opacity="0.04791535208182052"></circle><polygon id="SvgjsPolygon1079" points="-265.11603762279765,137.00216726163524 306.5063931901459,-420.3054628697822 630.0143060030621,225.2941476567289" fill="#83f125" opacity="0.4211999879770276"></polygon><polygon id="SvgjsPolygon1080" points="-976.3565844875002,-105.97348868087784 174.17893694788404,-366.8335935510347 -946.3907579651583,117.40796225376027" fill="#2da71b" opacity="0.24940258991638642"></polygon><circle id="SvgjsCircle1081" r="285.09435095289336" cx="819.5407373644227" cy="492.28138829732336" fill="#00949d" opacity="0.37223885044748883"></circle><polygon id="SvgjsPolygon1082" points="732.9164595872962,-25.823663936977994 -17.372443283541315,40.45926865545164 -706.390102945639,-173.77427217781837" fill="#64a2e4" opacity="0.37065572332151664"></polygon><polygon id="SvgjsPolygon1083" points="-160.61864822473024,-90.0164109131303 300.86330486196516,-154.8556837533124 -131.38134613592808,-292.9260544444678" fill="#a65370" opacity="0.2544558004829153"></polygon><circle id="SvgjsCircle1084" r="290.73299301155373" cx="191.24960560452428" cy="-125.96045418572243" fill="#ac6d6b" opacity="0.023052021583346072"></circle><circle id="SvgjsCircle1085" r="349.1212146532192" cx="-58.98241949132114" cy="-428.9340059720601" fill="#0517cf" opacity="0.270660450988516"></circle><circle id="SvgjsCircle1086" r="96.98316822059572" cx="143.1393624477896" cy="103.11426226283027" fill="#4e086e" opacity="0.43068339497374053"></circle><polygon id="SvgjsPolygon1087" points="242.6266118642527,-223.47041935935084 -63.066803074185486,449.28233567603934 -995.3019842710398,-26.67631941672454" fill="#405ccd" opacity="0.14529968536043336"></polygon><polygon id="SvgjsPolygon1088" points="-129.8121890390198,-221.10370699204208 -88.47620716747917,-328.87386141119634 -841.572567393222,434.1252642344689" fill="#50691f" opacity="0.11096213331358529"></polygon><polygon id="SvgjsPolygon1089" points="-610.7714911329402,-313.10626774832826 -180.32123579283302,-219.5765929633862 756.256193388929,59.61999025611681" fill="#c8a33a" opacity="0.0006429297113971222"></polygon><polygon id="SvgjsPolygon1090" points="-783.9124731069273,-236.75943459461382 191.8662137223862,-478.3910518695926 -464.3114098052607,263.08381380523315" fill="#41c40c" opacity="0.06423161236713903"></polygon><circle id="SvgjsCircle1091" r="187.77573477990052" cx="88.92551855930856" cy="482.3769695499325" fill="#db99fb" opacity="0.4439143158738912"></circle><circle id="SvgjsCircle1092" r="109.282395825829" cx="-778.3640817309325" cy="220.71310453546937" fill="#d15f22" opacity="0.029045532413436992"></circle><circle id="SvgjsCircle1093" r="467.68440219846343" cx="514.6969317833018" cy="455.850882888491" fill="#0dc410" opacity="0.009961074664324719"></circle><circle id="SvgjsCircle1094" r="139.6582343817787" cx="625.6545850826392" cy="-21.68619294032692" fill="#430cef" opacity="0.20924494573554386"></circle><polygon id="SvgjsPolygon1095" points="442.6451477258363,46.217754285694696 593.9218107814145,363.281311102416 -569.5677104012518,-284.9592747056546" fill="#1053e7" opacity="0.3057971644049272"></polygon><polygon id="SvgjsPolygon1096" points="-606.099855287781,-114.56128352093043 195.45677563165987,-396.3701128539443 576.544433972447,-410.30962736351097" fill="#eddbcf" opacity="0.2929515021043414"></polygon><polygon id="SvgjsPolygon1097" points="7.501769033045662,118.82338135642499 -513.863659713255,431.1542645495525 211.34272826140864,337.6912593672663" fill="#37fc74" opacity="0.13240060047644464"></polygon><polygon id="SvgjsPolygon1098" points="-184.832311840569,-423.1708559450338 -499.0565040819872,-240.50646225480523 -761.207287281175,-130.96549211220878" fill="#04cea0" opacity="0.2898392653163342"></polygon><circle id="SvgjsCircle1099" r="27.716664192977248" cx="-571.4789071983244" cy="232.94282287933356" fill="#b883ba" opacity="0.38221014724340197"></circle><circle id="SvgjsCircle1100" r="270.18848302135433" cx="55.07381924069409" cy="37.45491316720643" fill="#c43ad2" opacity="0.216493791824644"></circle><circle id="SvgjsCircle1101" r="97.18718788239211" cx="39.12079948781957" cy="-77.2022444653013" fill="#8b5aef" opacity="0.07407963894308811"></circle><circle id="SvgjsCircle1102" r="315.378902230806" cx="-416.0242002778589" cy="-322.8778624805928" fill="#0b9cfa" opacity="0.013312541080819251"></circle><polygon id="SvgjsPolygon1103" points="-853.0620985717983,305.281787165728 896.3990721722248,-177.9519786736197 48.36660450436216,-495.6769359847375" fill="#3b2990" opacity="0.2758937539848041"></polygon><polygon id="SvgjsPolygon1104" points="56.235293587921205,364.24901032803984 121.94896524409114,-144.19014984596168 801.3186160843304,-179.98275960109942" fill="#c35016" opacity="0.13441943615452334"></polygon><circle id="SvgjsCircle1105" r="462.3541387733685" cx="-705.6604931323247" cy="-191.98721197162791" fill="#bc2654" opacity="0.34706537466902165"></circle><polygon id="SvgjsPolygon1106" points="-415.4341974281541,2.579330906888231 -199.39352319490706,171.9321733257417 -597.0233722082492,-279.95432221470475" fill="#53adb8" opacity="0.26609702655405676"></polygon><circle id="SvgjsCircle1107" r="27.187836711761506" cx="-369.3671168612474" cy="-318.0826901823501" fill="#7cc489" opacity="0.0008782152358955964"></circle><circle id="SvgjsCircle1108" r="250.1158144712663" cx="684.748989947582" cy="-118.5775022643021" fill="#477cce" opacity="0.3824664128038794"></circle><circle id="SvgjsCircle1109" r="475.6363411329644" cx="-426.0066159899893" cy="320.3845868310127" fill="#b44ee2" opacity="0.42708287577560555"></circle></svg>