<svg id="SvgjsSvg10366" width="1000" height="500" xmlns="http://www.w3.org/2000/svg" version="1.1" xmlns:xlink="http://www.w3.org/1999/xlink" xmlns:svgjs="http://svgjs.com/svgjs" viewBox="0 0 1000 500"><defs id="SvgjsDefs10367"></defs><svg id="SvgjsSvg10368" style="overflow: visible;"></svg><rect id="SvgjsRect10369" width="1000" height="500" fill="#2acec2"></rect><circle id="SvgjsCircle10370" r="349.8201655806247" cx="660.4051310602692" cy="-449.01436730489206" fill="#11b383" opacity="0.45467083288494625"></circle><circle id="SvgjsCircle10371" r="181.85473233342796" cx="-18.955914871182472" cy="463.2797235651826" fill="#3dd5dc" opacity="0.11271690546167334"></circle><circle id="SvgjsCircle10372" r="320.0881946765406" cx="-349.07867854029905" cy="-203.94608884308371" fill="#4aeca1" opacity="0.17526940360088306"></circle><circle id="SvgjsCircle10373" r="453.18972076330874" cx="324.9752072396541" cy="-344.2202706320978" fill="#469e99" opacity="0.2195853866677565"></circle><circle id="SvgjsCircle10374" r="124.07295357247428" cx="246.8144520470928" cy="158.66993358194145" fill="#5c9ccd" opacity="0.016659827804112796"></circle><polygon id="SvgjsPolygon10375" points="-993.8468089290602,-188.3700328902611 -257.7507473218561,-499.70599895860613 -169.72685898122154,175.1773331827386" fill="#6a37c6" opacity="0.2896396241687057"></polygon><polygon id="SvgjsPolygon10376" points="-641.0420330095445,-134.46548712677918 750.5914095346875,398.0391843998043 -931.7644474037907,499.8231759122498" fill="#6a55e4" opacity="0.19295479588746"></polygon><circle id="SvgjsCircle10377" r="50.50977927765277" cx="-827.351719037261" cy="188.85954337092596" fill="#6eddbe" opacity="0.21987893071648212"></circle><polygon id="SvgjsPolygon10378" points="703.5996117034636,10.032462372051555 850.5020477339272,-256.26108653495953 -828.405145872893,-481.1912495803732" fill="#a77be4" opacity="0.27666057440410774"></polygon><polygon id="SvgjsPolygon10379" points="141.14684563644187,316.50197200416267 -225.74158223743405,-205.85592223968763 -988.057122024216,286.1921446727549" fill="#8c048a" opacity="0.4504569099161556"></polygon><polygon id="SvgjsPolygon10380" points="916.6388682655952,479.01279576079787 -531.348981951774,-363.02802210772177 192.8907785617323,100.05361606256804" fill="#934983" opacity="0.07148869108896873"></polygon><polygon id="SvgjsPolygon10381" points="-86.81059501814389,-145.0476370535212 -745.8823430587636,-252.4517652011371 -449.465837996029,237.4987187112156" fill="#9566e2" opacity="0.31104018622162977"></polygon><circle id="SvgjsCircle10382" r="223.05561509521377" cx="547.7392008878783" cy="-36.8124790650175" fill="#4ec6b8" opacity="0.28847531529705095"></circle><polygon id="SvgjsPolygon10383" points="-567.0712195706265,51.67083794289567 888.0494722883348,-236.71444195289683 797.5532031045059,25.372407464083267" fill="#7069fa" opacity="0.27539972350414343"></polygon><polygon id="SvgjsPolygon10384" points="-504.8006902778859,-159.48158552063728 567.8087902170814,66.39589313263934 252.1975207310345,170.7065920671447" fill="#b45386" opacity="0.25493287513960383"></polygon><circle id="SvgjsCircle10385" r="158.95209173447967" cx="-897.2761105027245" cy="-493.3601941198582" fill="#39db8e" opacity="0.38184257576246927"></circle><polygon id="SvgjsPolygon10386" points="828.6333257726803,363.2615445170088 135.6900977650289,-395.1110722715614 -291.7571757543809,205.29263776935625" fill="#74638c" opacity="0.21487437909097074"></polygon><circle id="SvgjsCircle10387" r="324.4017336798135" cx="862.5252547968155" cy="110.45085028552842" fill="#62d0eb" opacity="0.06077455796082675"></circle><circle id="SvgjsCircle10388" r="20.590267857428124" cx="439.13032375076455" cy="-136.667212600349" fill="#389be6" opacity="0.012096670056085834"></circle><circle id="SvgjsCircle10389" r="189.70253888074927" cx="-539.9990891195446" cy="-352.8541858015344" fill="#3ce6b3" opacity="0.023902927471551094"></circle><polygon id="SvgjsPolygon10390" points="-804.6447503323435,225.2616116612951 -273.358054011728,-103.07229927265183 -63.238307607137244,-308.16644043563923" fill="#9371d5" opacity="0.3057860337797118"></polygon><circle id="SvgjsCircle10391" r="234.8343726312482" cx="-142.54083261647656" cy="388.5557609789614" fill="#68d2a2" opacity="0.3591490367860325"></circle><polygon id="SvgjsPolygon10392" points="-893.5210549219601,73.53271098984624 770.6152133654141,336.30848292441385 366.66239297351217,-373.9631210813188" fill="#8158b1" opacity="0.27897714936856166"></polygon><polygon id="SvgjsPolygon10393" points="-138.59526416204562,-51.537570944791185 92.24991955871656,258.6164853061366 -26.80977797160415,-383.3435555145555" fill="#805f8d" opacity="0.35507937673361634"></polygon><circle id="SvgjsCircle10394" r="63.406679705311106" cx="443.3248501255039" cy="-199.61385302065503" fill="#4eb79c" opacity="0.02741533846089317"></circle><circle id="SvgjsCircle10395" r="175.34890842653206" cx="147.3893808197895" cy="-89.960019269089" fill="#4ab0dd" opacity="0.22861772246023138"></circle><polygon id="SvgjsPolygon10396" points="-365.4666888243763,-237.43384509919173 635.4910999662918,115.45641616793966 102.4999855338367,281.839064534748" fill="#4514e6" opacity="0.257502772692599"></polygon><circle id="SvgjsCircle10397" r="31.224037228689937" cx="-840.3131246540463" cy="-7.199010354592247" fill="#0182d3" opacity="0.3113757969904549"></circle><circle id="SvgjsCircle10398" r="339.6253031490373" cx="-523.4352471589951" cy="477.95582644069907" fill="#329bf0" opacity="0.3406523588959509"></circle><circle id="SvgjsCircle10399" r="108.75205079578765" cx="-775.8212757258365" cy="179.76221629167583" fill="#25b1ca" opacity="0.17551486814910655"></circle><circle id="SvgjsCircle10400" r="53.264180712783386" cx="356.1500345246143" cy="-306.93192037865754" fill="#3181cd" opacity="0.027968427869799365"></circle><circle id="SvgjsCircle10401" r="339.7393024262658" cx="-24.347290135773278" cy="-8.891643714650002" fill="#14f6de" opacity="0.04501713521991724"></circle><circle id="SvgjsCircle10402" r="181.23512556795617" cx="-264.64299669480965" cy="392.99436313665194" fill="#5afa8b" opacity="0.21014210152419754"></circle><circle id="SvgjsCircle10403" r="187.12347403596763" cx="472.8925147497707" cy="421.5325643038576" fill="#06aaa3" opacity="0.11544252844747893"></circle><circle id="SvgjsCircle10404" r="80.15602081442374" cx="192.66261242280962" cy="393.8698360880961" fill="#1ec5dd" opacity="0.1353432775816089"></circle><polygon id="SvgjsPolygon10405" points="175.71075719138025,-18.36937178318186 672.6536545880163,-357.1539314618639 257.6178617823671,-44.25671528832197" fill="#8744a6" opacity="0.4969461763267382"></polygon><circle id="SvgjsCircle10406" r="430.1723631977962" cx="-968.0363148272457" cy="-106.79567817491755" fill="#0ef3dd" opacity="0.09936762583641323"></circle><circle id="SvgjsCircle10407" r="372.6480273670698" cx="-615.6682981879355" cy="-99.03351346071787" fill="#21eaf3" opacity="0.16438047884774132"></circle><circle id="SvgjsCircle10408" r="421.12770035095923" cx="-634.2862727326155" cy="161.72785459860313" fill="#50a7d8" opacity="0.35218069274775166"></circle><polygon id="SvgjsPolygon10409" points="989.1233814957873,-196.21759113471882 -311.9735657370279,-345.3715022413324 -851.2514305177797,348.12688592731274" fill="#a970ea" opacity="0.28378353243352716"></polygon><circle id="SvgjsCircle10410" r="409.08780515497045" cx="-162.7100157479515" cy="409.7501430304949" fill="#15d692" opacity="0.22827821993608755"></circle><circle id="SvgjsCircle10411" r="366.9349943321556" cx="799.2526862853429" cy="433.12393990561236" fill="#2fe78c" opacity="0.3029353511080941"></circle><polygon id="SvgjsPolygon10412" points="-305.29537864891495,58.13214129171911 -979.8203686044653,334.3452573026311 -156.3070371381508,429.87342755423947" fill="#770c90" opacity="0.3501661172361734"></polygon><circle id="SvgjsCircle10413" r="168.50200621540466" cx="317.6362777230115" cy="300.4439287215572" fill="#68bf8a" opacity="0.267883358071485"></circle><circle id="SvgjsCircle10414" r="326.6280367955383" cx="626.2646179133933" cy="88.66372737671657" fill="#3d90b8" opacity="0.3750090427138456"></circle><polygon id="SvgjsPolygon10415" points="562.9861112993622,-291.826932015792 -448.847913504983,169.14174694492215 -533.94013163417,164.71409026725553" fill="#a53cb8" opacity="0.13837585209236158"></polygon><polygon id="SvgjsPolygon10416" points="293.9786064008697,-239.87172629526253 836.9146064578513,-497.8915208637567 -912.5921663875652,377.0234418961345" fill="#a664bb" opacity="0.23807134150223264"></polygon><circle id="SvgjsCircle10417" r="81.37673078663177" cx="332.68327857582267" cy="334.18363492356184" fill="#47ddb6" opacity="0.4323706734521887"></circle><circle id="SvgjsCircle10418" r="287.9495465491544" cx="-938.4528788562366" cy="336.5271017488376" fill="#53c1fd" opacity="0.1381632803627738"></circle><circle id="SvgjsCircle10419" r="193.76872774801734" cx="248.84455466150666" cy="-266.5058626945971" fill="#61ebd5" opacity="0.14371791106557452"></circle><circle id="SvgjsCircle10420" r="441.18995095305877" cx="-282.5500055592149" cy="115.3745336257706" fill="#1cb0d6" opacity="0.17431748584125883"></circle><polygon id="SvgjsPolygon10421" points="-918.0465167526961,-299.75346457022266 920.773792080008,-17.4666472484937 -274.68477147651436,-400.690772923391" fill="#695b92" opacity="0.1269415747750462"></polygon><circle id="SvgjsCircle10422" r="202.60513123506217" cx="759.0530658490454" cy="-399.5042211231976" fill="#3f8f8c" opacity="0.299695470160927"></circle><circle id="SvgjsCircle10423" r="476.16298783506915" cx="734.6578590745594" cy="135.15304152175452" fill="#4bf0dc" opacity="0.1750461162741367"></circle><circle id="SvgjsCircle10424" r="95.305995312853" cx="91.36575945803611" cy="497.0134962361783" fill="#45a9b0" opacity="0.25496926927121677"></circle><polygon id="SvgjsPolygon10425" points="-72.09196975345344,-355.2163809731095 183.80026839124503,354.17014880701856 448.07030646302997,302.11241723230796" fill="#454e9b" opacity="0.4047341252099259"></polygon><polygon id="SvgjsPolygon10426" points="-51.428962618826404,335.6269360483144 673.8383204775205,-72.43204659223682 22.624287872500872,-254.50394175016112" fill="#9e1de7" opacity="0.2811982734534584"></polygon><circle id="SvgjsCircle10427" r="341.3517385654846" cx="721.5007420285597" cy="-376.27337199969645" fill="#279ab0" opacity="0.11120730420229985"></circle><polygon id="SvgjsPolygon10428" points="-838.1325259055706,-158.29369669510743 73.73824969677753,471.747446265175 -943.6305911593732,-265.89327070385394" fill="#7115cb" opacity="0.24770416023873343"></polygon><polygon id="SvgjsPolygon10429" points="241.64993596703926,-308.245512018436 76.15549203224373,438.2500295919625 874.0436842343904,367.20453307554976" fill="#6c3fa4" opacity="0.14232865007573958"></polygon><circle id="SvgjsCircle10430" r="454.60113529486887" cx="-228.40448805938695" cy="234.56156659981684" fill="#54dacd" opacity="0.032765137563950164"></circle><circle id="SvgjsCircle10431" r="265.45469276553865" cx="904.1556083555818" cy="208.48795590367604" fill="#4ac5c3" opacity="0.39907569678932653"></circle><polygon id="SvgjsPolygon10432" points="418.39783764646563,-177.02867781874312 -328.5151637503594,274.5817809233804 -37.350572057367685,-214.66401903575314" fill="#5517a7" opacity="0.4138479607903609"></polygon><circle id="SvgjsCircle10433" r="374.71571876393494" cx="668.0332244280751" cy="-347.35316541699456" fill="#01d2d7" opacity="0.310234758627581"></circle><polygon id="SvgjsPolygon10434" points="-749.9554498869716,40.297871660283135 -243.27585598555322,-144.27943272810495 720.7699213707594,173.32876777521108" fill="#6221c9" opacity="0.1417774591092078"></polygon><polygon id="SvgjsPolygon10435" points="-880.2378027927941,119.73872856588503 297.39103742783755,109.07107941914478 10.179537937164127,-243.29760200818941" fill="#684498" opacity="0.2072081413439043"></polygon><polygon id="SvgjsPolygon10436" points="-983.0335515352587,14.43377401650946 -871.6318480613184,201.24046997686264 -274.13157876217565,-128.52574235795265" fill="#9530de" opacity="0.19566535663061413"></polygon><circle id="SvgjsCircle10437" r="321.4794844207084" cx="773.9419630662164" cy="278.47298183824034" fill="#25e48c" opacity="0.07520320378692946"></circle><circle id="SvgjsCircle10438" r="390.36392256415985" cx="708.7158259072223" cy="-24.00243380043389" fill="#60d5e4" opacity="0.013771768301787614"></circle><circle id="SvgjsCircle10439" r="194.59547054748683" cx="-295.0944519172807" cy="491.1578986832046" fill="#74a6c8" opacity="0.348715585019869"></circle><circle id="SvgjsCircle10440" r="24.0754448976368" cx="409.2576442989823" cy="472.5982495097927" fill="#30a5cc" opacity="0.46274629819569046"></circle><circle id="SvgjsCircle10441" r="383.82213032872284" cx="697.2749546478626" cy="122.73537247794161" fill="#258bf7" opacity="0.2615215880084212"></circle><polygon id="SvgjsPolygon10442" points="-628.3598177471998,411.07901693254973 -641.2340699500359,-284.7835485035765 -234.2181533561245,-323.61476080889196" fill="#822b9b" opacity="0.18455442716480652"></polygon><polygon id="SvgjsPolygon10443" points="133.0522923509036,371.13697276619575 -99.15314552322036,357.0678733726169 237.28329269691972,89.78973531736528" fill="#b9349e" opacity="0.24496191335759543"></polygon><circle id="SvgjsCircle10444" r="230.4023900022345" cx="131.8571564027934" cy="62.335846351666305" fill="#28d6a4" opacity="0.14581703787350264"></circle><circle id="SvgjsCircle10445" r="116.9750470903731" cx="869.5513381660285" cy="-229.53442654003032" fill="#6ef5d1" opacity="0.17581961210278385"></circle><circle id="SvgjsCircle10446" r="43.091022430771005" cx="-280.1385902249689" cy="106.59175252629848" fill="#37f4e8" opacity="0.3963098870475351"></circle><polygon id="SvgjsPolygon10447" points="-387.65164009333296,-78.07604853488414 208.10391163523923,-212.52414216394897 294.4862242260119,235.80579261585763" fill="#6b09c2" opacity="0.20284116569147304"></polygon><circle id="SvgjsCircle10448" r="66.06847630007861" cx="-31.261006102423266" cy="-222.14270424721838" fill="#09b3c6" opacity="0.1856802543838233"></circle><polygon id="SvgjsPolygon10449" points="-807.1878368018868,87.86173605649947 315.8973736427488,-75.57303402132078 198.66968340028643,429.14793313458483" fill="#a07df7" opacity="0.0263537706075595"></polygon><polygon id="SvgjsPolygon10450" points="406.4316554394095,-189.95370065542613 -505.3684967011907,-205.49451267244257 -645.8962869143381,59.49479990724876" fill="#83649d" opacity="0.21954673575065387"></polygon><circle id="SvgjsCircle10451" r="344.58301197412766" cx="733.4360286870321" cy="422.6310137553388" fill="#0dc0d6" opacity="0.019288175919307093"></circle><polygon id="SvgjsPolygon10452" points="797.4586572912083,22.485170065467173 -581.2571507008211,149.75403282055822 999.5815302274655,-370.89455007516324" fill="#5d50b8" opacity="0.0637836036862971"></polygon><circle id="SvgjsCircle10453" r="1.1128983243979818" cx="-272.6447266018432" cy="77.77997048942461" fill="#37efb8" opacity="0.008224869732137098"></circle><circle id="SvgjsCircle10454" r="108.66967550908701" cx="-675.8467524514783" cy="-479.5421022027584" fill="#37c8f3" opacity="0.27430356831478997"></circle><circle id="SvgjsCircle10455" r="290.50857264370546" cx="749.2378199089605" cy="-201.091058216436" fill="#4faaa9" opacity="0.4330124187790625"></circle><circle id="SvgjsCircle10456" r="55.78083675078271" cx="-772.4025705587594" cy="-158.66585407076974" fill="#4ca7d4" opacity="0.12590050205581604"></circle><circle id="SvgjsCircle10457" r="225.5733883137423" cx="351.26057374629045" cy="186.34403787611325" fill="#27e18b" opacity="0.16163402780538605"></circle><polygon id="SvgjsPolygon10458" points="621.7506507625171,-424.94930823968093 631.2961222292342,253.91027469168057 160.27869390908882,487.40890068922124" fill="#a575fc" opacity="0.1269806497686966"></polygon><polygon id="SvgjsPolygon10459" points="-598.8367204257722,-19.992991730340293 -130.5470506942936,-154.31525033229798 -428.06987531207824,113.05603482931974" fill="#a506a2" opacity="0.32145679536193883"></polygon><polygon id="SvgjsPolygon10460" points="665.3811466888046,-214.44222379139256 -667.0052779616116,441.8728245224486 448.09923749286327,49.178289139090566" fill="#a87dd6" opacity="0.2329789852285079"></polygon><circle id="SvgjsCircle10461" r="411.91757403844554" cx="451.41100939197463" cy="-79.09410286814023" fill="#56d0f3" opacity="0.3541261143021467"></circle><circle id="SvgjsCircle10462" r="376.8235661533057" cx="969.6463677100819" cy="361.06071256746804" fill="#63b4da" opacity="0.4072212184819384"></circle><circle id="SvgjsCircle10463" r="205.67606626856016" cx="-371.8904483395762" cy="9.671178423108245" fill="#06f5f4" opacity="0.08222715248048162"></circle><polygon id="SvgjsPolygon10464" points="-786.6810812406784,-499.2226792462104 40.53392604254827,83.45896899312334 678.1882159494078,-63.60377259230978" fill="#b15f94" opacity="0.22783771933428698"></polygon><polygon id="SvgjsPolygon10465" points="310.4781840340479,-477.8736041255585 858.0645944208668,-110.48218260887086 -251.5608914837179,-135.58685702729247" fill="#4607bd" opacity="0.3729076875219076"></polygon><polygon id="SvgjsPolygon10466" points="283.69395404528177,228.1142117979715 928.4103026856508,162.69399296812753 -144.3424539199949,415.8831806331269" fill="#ab22ea" opacity="0.12290484708094884"></polygon><circle id="SvgjsCircle10467" r="443.9969839738617" cx="704.4347786780079" cy="460.8344873755261" fill="#46f992" opacity="0.20597090122992312"></circle><polygon id="SvgjsPolygon10468" points="642.0217956745291,-310.19982954643166 308.2222578608564,231.11502704562486 174.79914766111506,-186.56936218678453" fill="#4008bb" opacity="0.23079519344006882"></polygon><circle id="SvgjsCircle10469" r="291.6754475673607" cx="242.01497350525847" cy="-98.05430684504591" fill="#1cc197" opacity="0.004195355913906185"></circle></svg>