<svg id="SvgjsSvg1006" width="1000" height="500" xmlns="http://www.w3.org/2000/svg" version="1.1" xmlns:xlink="http://www.w3.org/1999/xlink" xmlns:svgjs="http://svgjs.com/svgjs" viewBox="0 0 1000 500"><defs id="SvgjsDefs1007"></defs><svg id="SvgjsSvg1008" style="overflow: visible;"></svg><rect id="SvgjsRect1009" width="1000" height="500" fill="#983270"></rect><circle id="SvgjsCircle1010" r="322.4928834804832" cx="-977.5147516734118" cy="-359.7911338766813" fill="#d84a82" opacity="0.20031802346884064"></circle><polygon id="SvgjsPolygon1011" points="-610.4496091714307,-208.80150724419576 -939.3435984995424,-143.1184898090869 -345.8594091279283,470.3293839029843" fill="#825fce" opacity="0.39364443308302"></polygon><circle id="SvgjsCircle1012" r="404.0490134576378" cx="963.0960761446695" cy="117.21572916500065" fill="#d226c9" opacity="0.4430314308494196"></circle><circle id="SvgjsCircle1013" r="323.31241921366336" cx="-562.7324829143215" cy="217.10950261727692" fill="#32a29c" opacity="0.051912845814400255"></circle><polygon id="SvgjsPolygon1014" points="822.6449072021294,19.96301387432368 180.27171493876972,-242.5470041182478 -975.7069511085756,-242.5213437506588" fill="#9c2e32" opacity="0.3300227342807822"></polygon><circle id="SvgjsCircle1015" r="455.69591832521184" cx="-780.6285410628249" cy="-224.23808145200462" fill="#edf909" opacity="0.29864943304501834"></circle><circle id="SvgjsCircle1016" r="208.88118131249956" cx="47.43743566947478" cy="-273.2156634419356" fill="#80eed4" opacity="0.4461739949244208"></circle><circle id="SvgjsCircle1017" r="66.94583610554261" cx="443.5333904296019" cy="-389.2494288641557" fill="#5ffb79" opacity="0.46554876487721164"></circle><polygon id="SvgjsPolygon1018" points="18.35109727348174,-102.35432087515716 772.6762331808495,-32.71137826089165 -983.0583040994844,-452.5566136833188" fill="#99d846" opacity="0.22674213719845537"></polygon><polygon id="SvgjsPolygon1019" points="656.4408929020474,364.6282357419117 -728.3176501829494,-431.4207917062629 387.8694499252756,479.06187290460434" fill="#5c2468" opacity="0.3862100019662845"></polygon><circle id="SvgjsCircle1020" r="407.00413585090433" cx="412.73247933595985" cy="441.1134789539044" fill="#314110" opacity="0.008642786617222509"></circle><circle id="SvgjsCircle1021" r="154.94440980464853" cx="81.73304503378586" cy="-323.7792210201495" fill="#2a1073" opacity="0.2186664274744221"></circle><circle id="SvgjsCircle1022" r="374.45606913877316" cx="915.0409766399007" cy="-155.5877702878068" fill="#5cb2c3" opacity="0.24134695226137826"></circle><polygon id="SvgjsPolygon1023" points="995.8826845978163,412.34304639553045 411.0096719202984,-304.1939755893899 364.3107652336553,31.19781951367304" fill="#f0bf84" opacity="0.3625457846990078"></polygon><circle id="SvgjsCircle1024" r="261.4670589825069" cx="467.9988369010987" cy="-95.00614131651861" fill="#eaa773" opacity="0.03838900524641675"></circle><circle id="SvgjsCircle1025" r="136.54431934980516" cx="-479.65497656276045" cy="-472.71586497635144" fill="#c63d62" opacity="0.30266094859345627"></circle><circle id="SvgjsCircle1026" r="457.9831675654195" cx="-946.8779822770798" cy="-95.16988071154776" fill="#3e5435" opacity="0.32055559228537567"></circle><polygon id="SvgjsPolygon1027" points="-13.070440682468188,-56.3408250161861 -589.5999574940988,-284.12362105638374 586.9552973130067,-172.8409186217719" fill="#318f2d" opacity="0.02750983165911269"></polygon><circle id="SvgjsCircle1028" r="348.6648655171165" cx="823.9061329257852" cy="342.8301953354354" fill="#89ca10" opacity="0.18115701292353503"></circle><circle id="SvgjsCircle1029" r="160.33210189332016" cx="18.643629776516264" cy="123.71907422539618" fill="#fb7de8" opacity="0.21779740682567883"></circle><polygon id="SvgjsPolygon1030" points="374.63132030380825,119.76702457342151 -562.3713431457973,-210.51158208074258 -42.906869344868824,498.5623738851774" fill="#cbd01a" opacity="0.09513483326095118"></polygon><polygon id="SvgjsPolygon1031" points="640.284587986042,-46.88525777804011 -995.9600125600927,-493.9599077719188 200.01473095293272,-63.910229149116276" fill="#518eb4" opacity="0.057592778604921846"></polygon><polygon id="SvgjsPolygon1032" points="-645.7680921603642,421.0216118431573 -979.4678287745709,221.48871591328987 -619.2487265858647,-38.669311877665564" fill="#5c717d" opacity="0.2656479624632797"></polygon><circle id="SvgjsCircle1033" r="35.46978838389991" cx="80.01638518054483" cy="-195.4259525372828" fill="#676c40" opacity="0.4694968576260611"></circle><polygon id="SvgjsPolygon1034" points="378.88428172354816,331.3666604916639 260.88971688317247,191.7602223121861 -68.64792842654049,292.57429405964115" fill="#acb020" opacity="0.23350771598789233"></polygon><polygon id="SvgjsPolygon1035" points="38.054264065995994,-331.4871046877699 293.5521790690632,62.942929875309915 -635.5778999990375,-269.8394938983073" fill="#a4ae1e" opacity="0.042679653767492054"></polygon><circle id="SvgjsCircle1036" r="499.1085917907782" cx="-997.8187893326425" cy="-174.8158634160253" fill="#475359" opacity="0.43131658909891113"></circle><polygon id="SvgjsPolygon1037" points="-311.5581319780705,6.065087906383724 408.0848545860838,-49.208384852586164 828.1160748137802,-18.538182326841593" fill="#4f3c53" opacity="0.26857627577053755"></polygon><circle id="SvgjsCircle1038" r="74.58156272235405" cx="-589.3339210289885" cy="-53.574637560623216" fill="#95ce24" opacity="0.40035967657110394"></circle><polygon id="SvgjsPolygon1039" points="892.5912878855079,70.6471821380186 -445.02955671001575,-150.31539463868768 -387.408968455333,177.2118956964464" fill="#613fa5" opacity="0.12530473098895956"></polygon><circle id="SvgjsCircle1040" r="402.3676268009979" cx="-601.6539913206568" cy="204.5021887923308" fill="#df606f" opacity="0.10803307356709102"></circle><circle id="SvgjsCircle1041" r="48.89733805394225" cx="4.381599858574305" cy="-191.5638785283711" fill="#ef650f" opacity="0.05107284213051733"></circle><circle id="SvgjsCircle1042" r="302.06425977081363" cx="-850.7208995414812" cy="-120.9944714075213" fill="#d105af" opacity="0.45354816802721976"></circle><polygon id="SvgjsPolygon1043" points="-351.36162283848864,-161.74354830616113 368.89364360600007,-149.50991134375903 628.8338737101626,2.791703147679641" fill="#423c06" opacity="0.35653702379232544"></polygon><circle id="SvgjsCircle1044" r="259.47245221844395" cx="807.6916065286318" cy="313.6558632182813" fill="#c6b535" opacity="0.47397367265127754"></circle><circle id="SvgjsCircle1045" r="337.20880069935464" cx="-243.9060334077045" cy="422.10607162841245" fill="#b51bc8" opacity="0.3867153544246025"></circle><polygon id="SvgjsPolygon1046" points="3.4033415788780985,337.6517047472065 -351.86276939104255,-474.7996916473005 -281.642569383358,-56.1257913959563" fill="#5a7244" opacity="0.2781169704809705"></polygon><polygon id="SvgjsPolygon1047" points="42.50300562641837,-449.98960636240537 -784.4342714352192,-68.8606605215951 667.2788232523308,-33.07961849405251" fill="#58ef38" opacity="0.4655094970007382"></polygon><polygon id="SvgjsPolygon1048" points="-370.7522018186005,-150.90329265830758 115.28818255569377,-123.29715585498536 -100.9068747973298,-96.91609621883401" fill="#5ecf82" opacity="0.20945357490431704"></polygon><circle id="SvgjsCircle1049" r="383.65838092567293" cx="199.91588431982518" cy="328.76441141725456" fill="#e7bb22" opacity="0.48214483910439887"></circle><circle id="SvgjsCircle1050" r="31.133000169456082" cx="-235.0369352909496" cy="6.669416263904736" fill="#cfbb40" opacity="0.43686538268808583"></circle><polygon id="SvgjsPolygon1051" points="-985.651288083417,479.2387695800428 -595.0221789897926,-448.5733691938036 -742.0804055942458,29.92253824680074" fill="#145574" opacity="0.4740312826462505"></polygon><polygon id="SvgjsPolygon1052" points="-392.0446237531063,398.90757792983277 -964.8073475615835,-284.0467855208817 318.85792861175446,-473.93063115446023" fill="#46c810" opacity="0.2706233646459787"></polygon><circle id="SvgjsCircle1053" r="499.41221211749644" cx="-171.26432164514597" cy="-393.6627179057093" fill="#ea3342" opacity="0.4616195001613995"></circle><polygon id="SvgjsPolygon1054" points="392.5443661707777,-419.04900603060247 -457.50100429941745,-195.17537765562287 88.71638983496905,364.8821576110022" fill="#d328b4" opacity="0.19799961751437267"></polygon><polygon id="SvgjsPolygon1055" points="998.5343237003369,400.8529607240638 576.2694654124684,318.9752188787487 -956.9310594769655,-136.07234226208863" fill="#3dbd89" opacity="0.46569303912884596"></polygon><circle id="SvgjsCircle1056" r="368.2082979842456" cx="48.7909160749407" cy="125.59360454045327" fill="#1b9d8a" opacity="0.4064657249886209"></circle><circle id="SvgjsCircle1057" r="215.73749965233458" cx="990.5883348535549" cy="-432.1599602667811" fill="#9188a8" opacity="0.2338338857618517"></circle><circle id="SvgjsCircle1058" r="180.22043394728314" cx="-282.428406869486" cy="34.676503623689996" fill="#7b36dd" opacity="0.13373531436684638"></circle><circle id="SvgjsCircle1059" r="419.42387518326774" cx="-843.8367870498995" cy="-411.3531858016497" fill="#3b7770" opacity="0.21677434973241694"></circle><circle id="SvgjsCircle1060" r="307.8883600794504" cx="867.3074154492931" cy="-427.57206091812725" fill="#3a7f60" opacity="0.07116899119588882"></circle><circle id="SvgjsCircle1061" r="61.92616627036862" cx="-302.86114369946176" cy="373.8084791331711" fill="#4502b3" opacity="0.4371902478627352"></circle><circle id="SvgjsCircle1062" r="85.3800907504092" cx="334.2931640941508" cy="-368.18615727868576" fill="#cec9f3" opacity="0.30246493866111746"></circle><polygon id="SvgjsPolygon1063" points="-669.2218775544884,380.6580634278482 -592.9507567657427,192.29326335793212 -750.2214705099152,-459.70847931310254" fill="#20a512" opacity="0.07112527524158818"></polygon><circle id="SvgjsCircle1064" r="274.63322702987693" cx="739.5820037186911" cy="-149.2125045850119" fill="#452e21" opacity="0.4990965165597606"></circle><circle id="SvgjsCircle1065" r="89.97523150057951" cx="327.5675285760408" cy="251.10829096598206" fill="#087eda" opacity="0.2013339025483344"></circle><circle id="SvgjsCircle1066" r="400.9480510429079" cx="27.5124632815764" cy="-98.29475764517628" fill="#cc3edf" opacity="0.24062226052308167"></circle><polygon id="SvgjsPolygon1067" points="668.9740916431051,-54.95901002969862 495.8817857476138,-273.75317813307066 -278.3170871587432,-59.05701797171736" fill="#ccc3a9" opacity="0.05024726167969373"></polygon><polygon id="SvgjsPolygon1068" points="44.68874530927201,-473.94728039348144 146.54952247904203,-202.38872542895223 86.70174985005679,-39.98846418944345" fill="#07714d" opacity="0.20784034509172455"></polygon><polygon id="SvgjsPolygon1069" points="170.35591446636954,-44.87890862006935 254.95999008500416,140.54692864752406 298.30160898879967,404.2334221456447" fill="#cc2174" opacity="0.3670946882841687"></polygon><polygon id="SvgjsPolygon1070" points="408.6477637061821,479.5818355487378 -779.2699201413286,14.563902110055665 185.4425098987699,67.17359475274895" fill="#b08c15" opacity="0.024509623713917184"></polygon><polygon id="SvgjsPolygon1071" points="-853.7396365802797,362.81511369524617 6.6842774942909955,-262.03495097433205 -764.3548658553314,155.6153574972194" fill="#c89a7c" opacity="0.0039556462304009"></polygon><polygon id="SvgjsPolygon1072" points="-689.6640879035854,-282.2952299700645 -422.81581165331784,-118.87777946431675 -28.991659357944286,-380.451317374694" fill="#67eeab" opacity="0.2991061189708586"></polygon><polygon id="SvgjsPolygon1073" points="-531.5739477569821,-111.46674797054555 -964.9475603624143,131.12169187669133 -480.1081409872028,-394.9601812893939" fill="#62a829" opacity="0.1026485705331408"></polygon><polygon id="SvgjsPolygon1074" points="938.3027955137861,-394.67726325975264 -344.5245929957173,-353.3851598112665 77.58019823071595,168.06073360192863" fill="#36d2fa" opacity="0.07974806681632442"></polygon><circle id="SvgjsCircle1075" r="118.52071595563007" cx="-22.879930845999525" cy="94.71951284633224" fill="#790327" opacity="0.20496564147623342"></circle><polygon id="SvgjsPolygon1076" points="-239.5178717672777,-437.737916140311 683.4811082255098,-26.276075781930274 -748.906929551819,317.55716682466243" fill="#065cf6" opacity="0.2842758973599653"></polygon><polygon id="SvgjsPolygon1077" points="-302.2450391155704,439.7627460554319 129.9613599689194,-150.12858383301506 -633.8374236653727,233.09203401328432" fill="#af4207" opacity="0.4772803479840346"></polygon><circle id="SvgjsCircle1078" r="256.6912793883335" cx="-745.3221289509866" cy="355.50834419309444" fill="#01ad6f" opacity="0.4559709641201719"></circle><polygon id="SvgjsPolygon1079" points="-642.3834419698821,168.90406249704085 -513.7529592985409,-75.82573188261807 918.6880848896215,-285.7315057976566" fill="#e6f2fd" opacity="0.2375897977850533"></polygon><polygon id="SvgjsPolygon1080" points="-663.6627669846815,-139.80461365488537 -618.2795143716585,-478.7877452463236 18.765328843193743,-170.91778926869927" fill="#785dc9" opacity="0.1572795229869034"></polygon><polygon id="SvgjsPolygon1081" points="517.9680265010136,449.0816938170152 -407.2925180293918,-480.6999573891861 -67.16079921787616,37.783330119752804" fill="#356bfe" opacity="0.42051236619412313"></polygon><circle id="SvgjsCircle1082" r="496.5393124096561" cx="-657.1585024959785" cy="-66.88167787837051" fill="#e32130" opacity="0.05306468402111264"></circle><circle id="SvgjsCircle1083" r="149.50370197723916" cx="898.4298767643152" cy="-123.9225349742805" fill="#3786e8" opacity="0.33352422693096495"></circle><polygon id="SvgjsPolygon1084" points="-768.3492045691995,-176.46480934826394 -151.50492518696046,-493.15697229995715 584.3237644750986,89.68164241649254" fill="#b72821" opacity="0.3620840764719666"></polygon><circle id="SvgjsCircle1085" r="90.67913685703843" cx="410.12026630166156" cy="-130.227660865357" fill="#f61e20" opacity="0.3106126949132245"></circle><polygon id="SvgjsPolygon1086" points="-611.8612433645358,431.1708063166071 -896.0451141538801,277.199094780102 223.76924945376027,192.37159017406123" fill="#79d70c" opacity="0.09489331157930192"></polygon><circle id="SvgjsCircle1087" r="463.62082989209273" cx="-460.50281436312" cy="-345.33296122751756" fill="#f9bcb1" opacity="0.14955669184287368"></circle><circle id="SvgjsCircle1088" r="395.6603460375797" cx="882.6747515710274" cy="185.8048722083421" fill="#87b5a7" opacity="0.10495940762101363"></circle><circle id="SvgjsCircle1089" r="197.11657561501238" cx="-87.22848782243182" cy="-286.7992105569879" fill="#475312" opacity="0.17143673750883692"></circle><polygon id="SvgjsPolygon1090" points="-236.35729031848916,47.459660485269296 -853.1962362599375,252.04344446702476 -783.3702785067164,-287.0198515550395" fill="#bd0cc9" opacity="0.04765556166976903"></polygon><polygon id="SvgjsPolygon1091" points="415.6214764936151,-264.4987556437221 863.9239208059232,-128.11122140122808 -429.8467491664462,-389.48154304754956" fill="#503f0e" opacity="0.1106548148901274"></polygon><circle id="SvgjsCircle1092" r="137.08572620028391" cx="-65.50816597083383" cy="53.91067805461432" fill="#a93eba" opacity="0.46245891858168375"></circle><circle id="SvgjsCircle1093" r="491.1563800867216" cx="706.7728620691582" cy="162.2695737364404" fill="#f122ad" opacity="0.1481124671946954"></circle><polygon id="SvgjsPolygon1094" points="179.9535153263214,215.50282550583665 823.793890360434,123.78561873433205 -808.0064425364837,221.5680109210922" fill="#85fc2e" opacity="0.02376412586871668"></polygon><circle id="SvgjsCircle1095" r="281.6769956188272" cx="-978.5118705189792" cy="155.77364836742322" fill="#2c63ea" opacity="0.08489536301799228"></circle><circle id="SvgjsCircle1096" r="484.5270347827845" cx="-581.8028148776416" cy="468.18760020406125" fill="#700370" opacity="0.2657725783548752"></circle><polygon id="SvgjsPolygon1097" points="167.48821092366848,472.86611631640676 -216.07266168954322,95.6904234828495 716.1950311361238,73.43982740301124" fill="#db8789" opacity="0.3082294161269875"></polygon><polygon id="SvgjsPolygon1098" points="-862.398365205006,-300.9854233074207 312.7729073752014,-273.2415340823251 206.41875170369985,242.79185758487438" fill="#e2a1bc" opacity="0.2542048938075765"></polygon><polygon id="SvgjsPolygon1099" points="-210.3647948323411,62.192424578510554 -303.15762924617843,334.64598596250244 515.0419583293262,-489.88297751184587" fill="#9a5681" opacity="0.3996610483732317"></polygon><circle id="SvgjsCircle1100" r="414.6627632961651" cx="495.9162109317092" cy="353.5835523626263" fill="#6b4a1c" opacity="0.08311691877064808"></circle><polygon id="SvgjsPolygon1101" points="-447.4733054512084,-485.21460805022264 485.6763497932377,-10.788605575725796 705.2688825980774,152.5642650539496" fill="#40deb3" opacity="0.265360535967219"></polygon><circle id="SvgjsCircle1102" r="308.51767059527504" cx="-424.7906553295197" cy="-56.82326956641168" fill="#e0d659" opacity="0.25338546038950227"></circle><circle id="SvgjsCircle1103" r="313.4455664949339" cx="-189.97121023272484" cy="490.96828591528174" fill="#af9e0e" opacity="0.06233979618405816"></circle><polygon id="SvgjsPolygon1104" points="-246.49798256450288,463.14809774774756 684.0789015403166,35.42562227034978 799.2416509629693,-225.42520271390407" fill="#768f23" opacity="0.21188111799454112"></polygon><circle id="SvgjsCircle1105" r="236.767313252924" cx="-479.73933929040277" cy="-56.20374220594181" fill="#4a6844" opacity="0.11757494313178463"></circle><polygon id="SvgjsPolygon1106" points="202.76693970522706,88.83619151319897 -476.870131010112,388.1702614610623 707.9997791622295,77.80579309209702" fill="#82892c" opacity="0.3465576162524191"></polygon><circle id="SvgjsCircle1107" r="115.74614364688162" cx="-648.3064897555141" cy="-58.71359575642441" fill="#28ca55" opacity="0.07890076279620485"></circle><polygon id="SvgjsPolygon1108" points="-67.78063839903268,-254.4243921997107 319.34449427890536,-318.89579487952017 -233.26800305512302,-161.8871510696094" fill="#4e4b5d" opacity="0.46380731110343987"></polygon><circle id="SvgjsCircle1109" r="100.21942944947537" cx="-771.3389357594292" cy="-134.62591987255968" fill="#494ea3" opacity="0.07849124995968881"></circle></svg>