<svg id="SvgjsSvg1110" width="1000" height="500" xmlns="http://www.w3.org/2000/svg" version="1.1" xmlns:xlink="http://www.w3.org/1999/xlink" xmlns:svgjs="http://svgjs.com/svgjs" viewBox="0 0 1000 500"><defs id="SvgjsDefs1111"></defs><svg id="SvgjsSvg1112" style="overflow: visible;"></svg><rect id="SvgjsRect1113" width="1000" height="500" fill="#9575a9"></rect><polygon id="SvgjsPolygon1114" points="-270.2372333497451,-109.47578040822361 -184.43729003058843,-30.635384270528675 -573.7840377287564,-214.73971571099958" fill="#-3024-2c" opacity="0.19226306807614568"></polygon><polygon id="SvgjsPolygon1115" points="-392.67809610178256,-16.604121970930294 413.4464514528959,371.50036098125327 494.33737219349723,349.96870805482797" fill="#-22-24-11" opacity="0.47913995049815417"></polygon><circle id="SvgjsCircle1116" r="97.03856632920882" cx="825.6834161318759" cy="194.9659497434526" fill="#4e318d" opacity="0.3345938354551593"></circle><circle id="SvgjsCircle1117" r="216.44029676361643" cx="-706.432667806435" cy="-438.26467921854317" fill="#9640df" opacity="0.4651940337656757"></circle><circle id="SvgjsCircle1118" r="263.80324227109685" cx="225.2252000174533" cy="-284.6559348105686" fill="#6d19c5" opacity="0.4944163713937362"></circle><polygon id="SvgjsPolygon1119" points="381.7478299686411,-109.60151887959466 -184.393664805242,-488.0685489326364 -779.3882692351212,487.3793891160683" fill="#10-5-24" opacity="0.3202953263752215"></polygon><polygon id="SvgjsPolygon1120" points="63.96858525084326,81.73284024588747 -802.1058095135096,-178.12034975787492 -130.83342029372204,15.191710274367665" fill="#183d3b" opacity="0.020330902812626506"></polygon><circle id="SvgjsCircle1121" r="89.43108421838042" cx="-108.8122552521993" cy="-248.59632930659382" fill="#986d9f" opacity="0.3342678673145739"></circle><polygon id="SvgjsPolygon1122" points="-205.089915253934,-15.689554847807074 424.0002733981746,-290.11911258770033 468.0655322031862,-75.72845438867381" fill="#08-29-12" opacity="0.1438523632363784"></polygon><circle id="SvgjsCircle1123" r="120.93110424697807" cx="649.9848960891627" cy="-181.76796524832594" fill="#b910e3" opacity="0.4280328637964098"></circle><polygon id="SvgjsPolygon1124" points="-3.745686995653614,-346.88246159787343 954.4097400905987,-305.17136379785234 -759.5983962506776,-40.62153505912323" fill="#-20262a" opacity="0.43111466767293105"></polygon><polygon id="SvgjsPolygon1125" points="922.643982283367,281.2537311964385 849.2112968302638,-443.9592151228777 -920.0560905351053,-401.87537006817877" fill="#-1e2c39" opacity="0.2990606724635896"></polygon><circle id="SvgjsCircle1126" r="470.95891507276735" cx="970.4089754771826" cy="-150.71030893761048" fill="#6e45a3" opacity="0.18790241483109082"></circle><circle id="SvgjsCircle1127" r="112.22762324945079" cx="-326.5615811071556" cy="-241.49069362966856" fill="#95229c" opacity="0.08210011425193486"></circle><polygon id="SvgjsPolygon1128" points="557.1654137993737,203.6129066924335 -769.4049209013994,44.69069909935786 897.7166075354096,-292.12053095165504" fill="#091c-1c" opacity="0.12536303549599614"></polygon><circle id="SvgjsCircle1129" r="200.8554361206081" cx="654.0578861634749" cy="-290.00656767859186" fill="#a9038a" opacity="0.2214351526119669"></circle><circle id="SvgjsCircle1130" r="46.94937984502712" cx="-318.45718591368177" cy="-201.93177491039262" fill="#8b66d3" opacity="0.25691659111151"></circle><circle id="SvgjsCircle1131" r="110.5169584853346" cx="491.24121334708184" cy="-379.79831089346214" fill="#a26fda" opacity="0.24005807707628357"></circle><circle id="SvgjsCircle1132" r="456.2447729860494" cx="-846.708297038464" cy="-142.4905235060785" fill="#aa42af" opacity="0.42069162931402915"></circle><polygon id="SvgjsPolygon1133" points="105.27308882854709,-432.82009716644086 465.64888309192656,-126.19684163314582 796.9297669644825,-390.52582336477326" fill="#-1b34-4" opacity="0.4219247499216724"></polygon><circle id="SvgjsCircle1134" r="224.8170420946949" cx="56.54477609411492" cy="167.50789599201778" fill="#a23785" opacity="0.375998770797895"></circle><circle id="SvgjsCircle1135" r="328.4269503385364" cx="-637.4632093654893" cy="476.8780694724784" fill="#7f428f" opacity="0.4408317337647156"></circle><polygon id="SvgjsPolygon1136" points="-897.157083395642,-240.86274711326604 -845.503153587035,398.161843030099 545.0190944543403,-107.656925532716" fill="#1d-3418" opacity="0.1612726883129082"></polygon><polygon id="SvgjsPolygon1137" points="-469.75443967883155,-61.09479973435674 -565.4354392401153,-299.0649803328156 -810.6686189060754,74.17345877732305" fill="#-3519-a" opacity="0.44712000534979945"></polygon><circle id="SvgjsCircle1138" r="139.11644407315148" cx="630.2599175936612" cy="-264.89996099464497" fill="#7216de" opacity="0.37177964035043787"></circle><circle id="SvgjsCircle1139" r="203.77355030944832" cx="-915.4947548164985" cy="-158.88163435336236" fill="#786afa" opacity="0.06609016668232093"></circle><polygon id="SvgjsPolygon1140" points="-700.7817428012802,-255.52203374089368 -611.2357634756629,233.4384041273505 523.383093814723,461.8831347215066" fill="#-30-10c" opacity="0.20899887025994912"></polygon><polygon id="SvgjsPolygon1141" points="-284.95836960812596,244.50380365154342 313.4889541905586,19.250436448787582 769.4338722809562,-101.2950683147007" fill="#0f0a-37" opacity="0.273058955793415"></polygon><circle id="SvgjsCircle1142" r="261.35947330066324" cx="-358.1746403508381" cy="179.79664088980792" fill="#7018e6" opacity="0.3798738294242948"></circle><polygon id="SvgjsPolygon1143" points="-972.0340137058243,-156.35513231243948 325.21450367664124,-142.6519110615867 -901.119848153762,-276.76424175361933" fill="#-1208-38" opacity="0.45214490319746137"></polygon><circle id="SvgjsCircle1144" r="306.427612255342" cx="-908.022834771653" cy="420.57731423799316" fill="#6b76c5" opacity="0.1583489292324416"></circle><polygon id="SvgjsPolygon1145" points="542.7415537444333,350.78801913126983 -897.237314501059,261.9805928712384 212.06106087882722,126.53336226945862" fill="#2e-252d" opacity="0.2663981555878686"></polygon><circle id="SvgjsCircle1146" r="54.63847558573831" cx="623.7538162212161" cy="28.686187241526454" fill="#8c52d8" opacity="0.49938462350876445"></circle><circle id="SvgjsCircle1147" r="18.35208553994272" cx="-959.0380978456228" cy="-346.69464054806843" fill="#5a2e90" opacity="0.3167468098329693"></circle><circle id="SvgjsCircle1148" r="363.05324047445055" cx="-952.2188950205934" cy="-372.99096683482037" fill="#750d8e" opacity="0.43499561622321303"></circle><polygon id="SvgjsPolygon1149" points="-377.8325611266249,144.47291731168013 -352.4237220921891,234.85500524017323 -330.44426285121494,333.36767746975534" fill="#-a1a28" opacity="0.26285180986604384"></polygon><polygon id="SvgjsPolygon1150" points="-511.9358434345882,229.12194664452159 956.0345348650517,393.5901678687146 -15.504900769566916,-467.80720860707726" fill="#-11-3705" opacity="0.11354400361382466"></polygon><polygon id="SvgjsPolygon1151" points="547.9052335774118,-145.7342806675519 610.0696774669846,417.9696397099251 794.0947760415331,361.43549713765276" fill="#0a0c-38" opacity="0.031007134390041772"></polygon><circle id="SvgjsCircle1152" r="43.362595608936076" cx="722.0315090206122" cy="64.22223447867293" fill="#bc2e86" opacity="0.28781780437491267"></circle><circle id="SvgjsCircle1153" r="188.38606697853788" cx="-54.997252558920195" cy="-406.56197170735345" fill="#580782" opacity="0.4869343632894636"></circle><circle id="SvgjsCircle1154" r="378.5989287213627" cx="-838.607663698363" cy="327.48686087610656" fill="#aa0fc2" opacity="0.08582116935121763"></circle><circle id="SvgjsCircle1155" r="459.98250632148796" cx="-755.7261493733533" cy="189.12533364220315" fill="#bc44cf" opacity="0.3979957445840455"></circle><circle id="SvgjsCircle1156" r="115.60271507917408" cx="-493.8941867595408" cy="274.6030868950089" fill="#a978f3" opacity="0.053590589051169875"></circle><polygon id="SvgjsPolygon1157" points="-86.36694923167852,-488.42892764155033 599.6749676046629,-299.5608786133468 215.17521296529412,79.86335249556896" fill="#-2d-1-32" opacity="0.03677806184255883"></polygon><circle id="SvgjsCircle1158" r="358.1794956797261" cx="-559.1008631421043" cy="-335.39125714739646" fill="#b635db" opacity="0.2111213864267324"></circle><polygon id="SvgjsPolygon1159" points="720.1482426480009,331.74930503173687 -550.9060723024332,-183.0351254306437 -662.8668769310813,237.98069431515762" fill="#09-3a2e" opacity="0.4583521551458726"></polygon><polygon id="SvgjsPolygon1160" points="-843.2474440816562,-368.6509156175297 888.1422395840741,-410.0613617781106 -868.1936987698741,435.3526807181456" fill="#-15-14-7" opacity="0.36545810815488555"></polygon><circle id="SvgjsCircle1161" r="103.5113280379415" cx="202.55083369274507" cy="36.98431549614668" fill="#bb33dc" opacity="0.3348451644600138"></circle><circle id="SvgjsCircle1162" r="22.12168791484803" cx="-903.4220270289652" cy="-62.617450935427826" fill="#642594" opacity="0.20991429960382624"></circle><polygon id="SvgjsPolygon1163" points="181.8872595950038,-109.92449652307278 -48.64536217308091,-334.5832617472562 -238.53338028889493,207.16910859773714" fill="#-1007-3e" opacity="0.4652632758639814"></polygon><polygon id="SvgjsPolygon1164" points="918.1180586314119,495.56708817912386 114.0362615940046,436.11830831612644 67.91948398021896,-123.77710058989464" fill="#3a3d2f" opacity="0.095281715764447"></polygon><polygon id="SvgjsPolygon1165" points="610.2137490784787,14.194457903934335 -24.5040243788859,387.9054035641308 -435.59207887700154,-147.1477385016977" fill="#-11301c" opacity="0.21774890924280754"></polygon><circle id="SvgjsCircle1166" r="413.10348443516034" cx="529.6533842696656" cy="-286.356621824345" fill="#b7118e" opacity="0.41516541818816866"></circle><circle id="SvgjsCircle1167" r="308.23244725343244" cx="471.93804564694415" cy="-487.41615179904073" fill="#5628a5" opacity="0.3101242806740916"></circle><circle id="SvgjsCircle1168" r="307.3939404910949" cx="-421.2549844145328" cy="-200.62019200792514" fill="#ba63fa" opacity="0.331659346688047"></circle><polygon id="SvgjsPolygon1169" points="103.42228222101153,-144.56226254399996 588.7596746977515,242.31348159889876 -651.0667412861605,-69.95356716156522" fill="#-17-33c" opacity="0.16923070516244065"></polygon><circle id="SvgjsCircle1170" r="397.89272928549104" cx="-114.73550636531638" cy="-15.378292579136598" fill="#9365bb" opacity="0.11451633559855545"></circle><circle id="SvgjsCircle1171" r="235.5015571611935" cx="633.7072367740989" cy="289.2025057591545" fill="#5327ab" opacity="0.15421094155742135"></circle><circle id="SvgjsCircle1172" r="469.7843248305833" cx="-81.83683161215379" cy="-163.31541063470524" fill="#656dd7" opacity="0.4267802900570392"></circle><polygon id="SvgjsPolygon1173" points="-310.62019215913756,-79.82277916602533 917.7010513620241,-387.30370834686755 -296.7277139462676,22.95801970583318" fill="#0f383b" opacity="0.13924388909042806"></polygon><circle id="SvgjsCircle1174" r="106.7104345846579" cx="395.15765545350314" cy="367.2625285773155" fill="#6d1c9e" opacity="0.41229647583443674"></circle><polygon id="SvgjsPolygon1175" points="864.1040162986285,423.87710918019116 84.7412509832352,106.05914662481064 564.4249699969635,-438.8843316877551" fill="#-214-26" opacity="0.3911606819480742"></polygon><circle id="SvgjsCircle1176" r="440.7737391700203" cx="-903.2717467688633" cy="-318.4818357279555" fill="#6942a7" opacity="0.43690596851238916"></circle><circle id="SvgjsCircle1177" r="385.30472650639445" cx="778.1659375519068" cy="-444.35732702126063" fill="#b36f9a" opacity="0.00734771299626813"></circle><circle id="SvgjsCircle1178" r="254.67400682374307" cx="646.429499701401" cy="-88.90152464848057" fill="#ab37d5" opacity="0.05725909167137799"></circle><polygon id="SvgjsPolygon1179" points="554.323501477819,372.4856796496516 462.28453964492655,149.23175742583214 997.9224089369452,-255.808654808799" fill="#39-2f-27" opacity="0.35709789314448925"></polygon><circle id="SvgjsCircle1180" r="103.99914518277475" cx="-634.9137490054707" cy="-234.86178528921943" fill="#bc13af" opacity="0.0342036423729133"></circle><polygon id="SvgjsPolygon1181" points="-281.562634833497,-0.6364221226891118 -780.4418858215016,50.032926126850384 -325.87011656941604,-250.62457543828918" fill="#-26-2339" opacity="0.46740038376168214"></polygon><circle id="SvgjsCircle1182" r="236.98879831054532" cx="596.8712855625943" cy="8.883097036173979" fill="#906ab4" opacity="0.04289045932183699"></circle><circle id="SvgjsCircle1183" r="136.7635784944816" cx="-33.96036532998312" cy="-341.8674705008993" fill="#ae15f0" opacity="0.13036230034122254"></circle><circle id="SvgjsCircle1184" r="434.9409930458943" cx="539.4625043450292" cy="132.9140508404074" fill="#8c26ee" opacity="0.39298542071895226"></circle><polygon id="SvgjsPolygon1185" points="-822.2463383957122,-271.2262101456515 943.0133592123213,-84.46357329872643 -908.3450368878446,-183.86482008945927" fill="#-e11-23" opacity="0.2879980786598948"></polygon><circle id="SvgjsCircle1186" r="241.7375268647306" cx="626.8818964236295" cy="498.85986062280745" fill="#4f65e8" opacity="0.4599819103891497"></circle><circle id="SvgjsCircle1187" r="359.22292839307" cx="-300.8663270123719" cy="-341.02482653491916" fill="#bc33f2" opacity="0.3201119217157792"></circle><polygon id="SvgjsPolygon1188" points="-343.12572181683936,367.88937475694627 859.7716439466572,-124.2954676329262 42.81092296100519,-276.93476983640886" fill="#-2b-4-1a" opacity="0.44003927507801444"></polygon><circle id="SvgjsCircle1189" r="142.99875115408167" cx="575.6168549526328" cy="-357.7742080903623" fill="#a22e8e" opacity="0.15174970153293832"></circle><circle id="SvgjsCircle1190" r="448.7579906434217" cx="-24.316662549787225" cy="-375.18058117810705" fill="#754cb9" opacity="0.28934554217220454"></circle><polygon id="SvgjsPolygon1191" points="907.693077517748,-93.92284606093205 -801.8128504880528,250.4048888508321 -112.16916275023743,-443.90144648277953" fill="#26-2d0c" opacity="0.19197588724957237"></polygon><circle id="SvgjsCircle1192" r="444.3867237723845" cx="-786.2577496919148" cy="-474.52931398823563" fill="#4f3f91" opacity="0.3878039776386165"></circle><circle id="SvgjsCircle1193" r="98.47504837692244" cx="977.0183863635075" cy="-381.1743607083129" fill="#8b31c3" opacity="0.43135656236356146"></circle><circle id="SvgjsCircle1194" r="164.2281348603114" cx="669.1767727284273" cy="-479.25451989923283" fill="#585da7" opacity="0.12353972856215922"></circle><polygon id="SvgjsPolygon1195" points="542.5241830903155,82.46854784224843 -317.8965433087528,423.0676498649957 -803.1903451627054,-446.04031024791533" fill="#-100d10" opacity="0.048677749171114226"></polygon><circle id="SvgjsCircle1196" r="83.0922395816751" cx="517.3537449074938" cy="150.72004659151844" fill="#5e05e8" opacity="0.42231071501588113"></circle><polygon id="SvgjsPolygon1197" points="391.7183289556622,-359.07458475506985 -815.3485759456034,-23.236925509962703 -644.599365938523,394.75017252907094" fill="#-220a10" opacity="0.11650966517388339"></polygon><polygon id="SvgjsPolygon1198" points="-685.238001161494,301.5484332653151 -611.7582584344316,-77.79223822933278 703.8099286317561,-294.87084200981184" fill="#-3203-13" opacity="0.3435156284720011"></polygon><polygon id="SvgjsPolygon1199" points="-119.21342518365384,358.49798111070004 -739.673205727534,125.87222926445634 -993.4414778522447,315.8873259401944" fill="#-292c20" opacity="0.04007603745916166"></polygon><polygon id="SvgjsPolygon1200" points="-960.7902708318971,-129.08975352388927 655.1753093088878,406.7747090568223 258.26548038142187,393.1785032614223" fill="#-1c-250c" opacity="0.2640724137104459"></polygon><polygon id="SvgjsPolygon1201" points="-594.9680782803393,-183.3937345735319 -882.1453396793748,65.15675431933607 -454.54374820215855,-81.23555967309335" fill="#-13-32b" opacity="0.19610894081549035"></polygon><polygon id="SvgjsPolygon1202" points="-125.10112606942505,340.49444355372225 576.376911136538,-494.7311665473733 -971.9419968310965,85.73753836445678" fill="#002d-3d" opacity="0.12289952794109138"></polygon><circle id="SvgjsCircle1203" r="401.49348470440447" cx="48.823163101903674" cy="-256.5190543063547" fill="#9e33ba" opacity="0.17020311003446165"></circle><circle id="SvgjsCircle1204" r="390.0651914367427" cx="-176.02004074037802" cy="-253.6297058461192" fill="#9861ab" opacity="0.4071896223273994"></circle><circle id="SvgjsCircle1205" r="16.93561179644776" cx="-757.6740459322573" cy="98.8252806823566" fill="#4271e2" opacity="0.42742055541109936"></circle><circle id="SvgjsCircle1206" r="220.5226107338737" cx="-549.3435856494577" cy="-382.28321362938834" fill="#7672cb" opacity="0.39158688569964806"></circle><circle id="SvgjsCircle1207" r="279.97395260021807" cx="714.7691487876452" cy="437.43925479683355" fill="#9042d1" opacity="0.26294853262017703"></circle><polygon id="SvgjsPolygon1208" points="536.8489939011054,-326.79418022085054 269.60795659182895,490.0100471911579 20.21411347883361,442.3437076015098" fill="#-3f-18-14" opacity="0.14113505088752587"></polygon><polygon id="SvgjsPolygon1209" points="-308.1534393463796,402.5937858007112 552.2249452471622,-158.9882580480131 703.7550373267939,178.87666810659653" fill="#1b1804" opacity="0.3738334871667748"></polygon><circle id="SvgjsCircle1210" r="5.2177725730039315" cx="-701.1824385334537" cy="469.0039429009547" fill="#9f40a6" opacity="0.3580730531068337"></circle><circle id="SvgjsCircle1211" r="420.91765121462277" cx="359.6334935022196" cy="-394.8083147522994" fill="#4734c2" opacity="0.3882011408289323"></circle><polygon id="SvgjsPolygon1212" points="787.3708516036588,-491.04642049573147 -266.4074162258862,-349.8686220949869 116.47055329454042,24.199322211862864" fill="#0d-123f" opacity="0.4124735477634268"></polygon><polygon id="SvgjsPolygon1213" points="75.68442605330938,296.8246359215117 -646.7593932955667,233.85531617384152 336.16716066700906,-276.1244006921515" fill="#11-280f" opacity="0.16023557497263863"></polygon></svg>