<svg id="SvgjsSvg1006" width="1000" height="500" xmlns="http://www.w3.org/2000/svg" version="1.1" xmlns:xlink="http://www.w3.org/1999/xlink" xmlns:svgjs="http://svgjs.com/svgjs" viewBox="0 0 1000 500"><defs id="SvgjsDefs1007"></defs><svg id="SvgjsSvg1008" style="overflow: visible;"></svg><rect id="SvgjsRect1009" width="1000" height="500" fill="#2ba62e"></rect><circle id="SvgjsCircle1010" r="173.06401409171656" cx="341.95930312249834" cy="302.9296885727151" fill="#b2e124" opacity="0.0808196037026192"></circle><polygon id="SvgjsPolygon1011" points="-439.0241543710673,-38.946236190077855 925.6692335948308,145.8711418563472 301.11127627299925,453.6209369878254" fill="#d7d4f7" opacity="0.2959562454230674"></polygon><polygon id="SvgjsPolygon1012" points="686.3052390453702,340.3295957399133 -616.4064222712198,28.78438013000448 -678.9270542374148,-152.36969690613654" fill="#bb9564" opacity="0.05443103937793692"></polygon><circle id="SvgjsCircle1013" r="321.54061634574884" cx="-539.6257992867279" cy="78.90548324603162" fill="#7c96f8" opacity="0.27118062823278166"></circle><circle id="SvgjsCircle1014" r="129.2592795692965" cx="-481.31159983619614" cy="159.41032302110307" fill="#997c79" opacity="0.19735256975234794"></circle><circle id="SvgjsCircle1015" r="4.3155549010919225" cx="-342.04069783683576" cy="-161.17308032237673" fill="#1f9c6a" opacity="0.061456525080587854"></circle><circle id="SvgjsCircle1016" r="376.67493678076045" cx="130.99846803292348" cy="-395.2939027674147" fill="#ccea5c" opacity="0.22096914269337842"></circle><polygon id="SvgjsPolygon1017" points="621.807956618841,85.50657607774383 540.9530487981958,117.62335865672924 433.01361078432296,-140.43937221920896" fill="#eef8f5" opacity="0.3167493989383334"></polygon><polygon id="SvgjsPolygon1018" points="-585.0903746101058,-344.08616387752363 -4.354478357236644,-488.56525546616234 167.8942991433371,-362.81540336625847" fill="#2decdd" opacity="0.34754441122101587"></polygon><polygon id="SvgjsPolygon1019" points="-110.13683185253024,241.41730444744883 -487.40358119532834,-107.47608658236499 -780.0015902739643,415.4794511139328" fill="#a1607c" opacity="0.3762861803661893"></polygon><polygon id="SvgjsPolygon1020" points="829.8335291185165,170.69919249934458 -202.10339500738337,272.3739187619168 894.4126276317656,-393.14925850998713" fill="#705a42" opacity="0.03156707022796168"></polygon><polygon id="SvgjsPolygon1021" points="104.06296253681467,-137.1926274187989 -364.5443795778376,-43.48841952779071 684.5563712865751,414.04125771494614" fill="#c33796" opacity="0.040207431218295286"></polygon><circle id="SvgjsCircle1022" r="232.1686255222417" cx="308.59051095140967" cy="444.04635235703836" fill="#005332" opacity="0.13576139382865926"></circle><polygon id="SvgjsPolygon1023" points="895.4555080731534,-26.631939665765685 -352.30728006164463,410.3142545181462 -750.160514741165,-117.09345309566174" fill="#3834a3" opacity="0.24478357665524852"></polygon><circle id="SvgjsCircle1024" r="327.33217101665525" cx="-517.6202451794652" cy="-201.64507283520794" fill="#824a9f" opacity="0.33895895738454673"></circle><circle id="SvgjsCircle1025" r="452.6351040397694" cx="694.7349502487139" cy="-118.44778669486453" fill="#d38673" opacity="0.262315976508275"></circle><polygon id="SvgjsPolygon1026" points="798.9136889495412,461.46310030521784 920.6710769568897,62.45036168103297 983.9215435269546,-322.7389387745294" fill="#12c7c3" opacity="0.3818673069219657"></polygon><circle id="SvgjsCircle1027" r="475.7006276932759" cx="283.26161348779397" cy="269.85613295036705" fill="#a56769" opacity="0.4508790104285413"></circle><circle id="SvgjsCircle1028" r="6.651529775052789" cx="801.1135671575032" cy="321.1146445509296" fill="#cc1cbd" opacity="0.3713062620947911"></circle><polygon id="SvgjsPolygon1029" points="-63.38411765142075,-426.44447134776306 -468.7199067171441,-32.443885114753925 640.8512484655544,14.45123638320922" fill="#b043aa" opacity="0.2165640862484618"></polygon><circle id="SvgjsCircle1030" r="318.5094955804321" cx="-339.4976384112822" cy="-145.54613154499816" fill="#5fde11" opacity="0.06428779387312544"></circle><polygon id="SvgjsPolygon1031" points="807.3509268196274,-393.3329540553847 872.6891034573673,-374.7894513317953 -600.2281071329096,128.04396850450541" fill="#902274" opacity="0.49801610765009796"></polygon><polygon id="SvgjsPolygon1032" points="-315.6283232777679,-429.47827263594917 -892.8840624992822,234.03500573987924 -484.1422223660627,27.531878667041155" fill="#3bc4fb" opacity="0.18555268257456048"></polygon><circle id="SvgjsCircle1033" r="179.4264423923727" cx="109.33237299543907" cy="-462.47693202269227" fill="#fb48e4" opacity="0.33820498996735116"></circle><circle id="SvgjsCircle1034" r="445.3756476837574" cx="805.8979198346474" cy="-266.7563625685632" fill="#64362e" opacity="0.2536339908711537"></circle><polygon id="SvgjsPolygon1035" points="-940.7471839766375,-248.84774830976198 -619.5177968310999,-154.30681248384246 552.1015819428933,431.7561043360696" fill="#aea7cc" opacity="0.4380816173971188"></polygon><circle id="SvgjsCircle1036" r="463.15553214796523" cx="-399.81403270388637" cy="81.746677570727" fill="#fe135f" opacity="0.44064904669745164"></circle><circle id="SvgjsCircle1037" r="349.0775581690064" cx="438.1733504880749" cy="-480.35891406531726" fill="#9c4d28" opacity="0.10694040851957409"></circle><circle id="SvgjsCircle1038" r="70.43622654040948" cx="-857.4106367469989" cy="405.5421342690961" fill="#a8af0f" opacity="0.0005098544751577228"></circle><circle id="SvgjsCircle1039" r="197.25818181748232" cx="117.61987164119591" cy="-434.2992831392021" fill="#dd26b7" opacity="0.13201657077480655"></circle><polygon id="SvgjsPolygon1040" points="-926.1544727119065,-115.35241443734589 872.9106860281295,483.84556574618193 -749.1555736923794,136.39951325112395" fill="#e33e78" opacity="0.3103716582474123"></polygon><polygon id="SvgjsPolygon1041" points="-900.4763998280558,154.7337725999829 151.63949651208645,128.47696289245846 -188.82050995388113,-3.789965292210411" fill="#10ae5a" opacity="0.001779544243750819"></polygon><polygon id="SvgjsPolygon1042" points="963.0596656581245,226.27462818400272 394.1236317555381,-115.75316098480437 -370.043538638213,148.0436339751907" fill="#4abf31" opacity="0.12758984660903427"></polygon><circle id="SvgjsCircle1043" r="208.4124442870121" cx="228.95297944837944" cy="52.57268875536636" fill="#c29793" opacity="0.4032357537960808"></circle><circle id="SvgjsCircle1044" r="296.17487335189554" cx="-379.1229685592348" cy="-248.5388439220062" fill="#a369e5" opacity="0.25964320817857844"></circle><polygon id="SvgjsPolygon1045" points="69.06299145387243,-212.80295091882851 -331.72978947461786,45.00058588145748 -949.3677070396145,298.06024390283926" fill="#63633b" opacity="0.19746704088720568"></polygon><circle id="SvgjsCircle1046" r="92.18273479106375" cx="-734.9675817888599" cy="492.7607958651248" fill="#48a5ca" opacity="0.249206788910043"></circle><polygon id="SvgjsPolygon1047" points="-407.6978876613615,45.01702859410045 977.220447506543,-184.8296066763184 -481.253038919609,250.4939926884855" fill="#c691a9" opacity="0.26819196954449265"></polygon><circle id="SvgjsCircle1048" r="395.7787925067229" cx="-579.3070130117002" cy="-331.7283453453716" fill="#eef648" opacity="0.16537601504616284"></circle><circle id="SvgjsCircle1049" r="18.860770061829623" cx="-738.9082464705598" cy="-117.15156309956876" fill="#f8deca" opacity="0.37296979568464694"></circle><polygon id="SvgjsPolygon1050" points="305.6518099230718,347.10747044975585 -891.3713886243513,190.5421881686484 -183.34839109715517,216.21085790219172" fill="#a5db7d" opacity="0.2522842363472876"></polygon><polygon id="SvgjsPolygon1051" points="-912.7615795927393,-396.50187915777923 10.31552617188811,100.55497452920827 531.2537380577282,161.13449838175086" fill="#1ceb27" opacity="0.2619001757737275"></polygon><circle id="SvgjsCircle1052" r="429.6190647574146" cx="-896.057971964149" cy="-297.3947822662921" fill="#bde869" opacity="0.4906996041308481"></circle><circle id="SvgjsCircle1053" r="177.97371606508162" cx="-859.8183014828793" cy="385.22887759025684" fill="#10daf1" opacity="0.030502845275119372"></circle><circle id="SvgjsCircle1054" r="384.69264759440915" cx="349.8831722241689" cy="-214.66827639924378" fill="#c389d3" opacity="0.13651085607077773"></circle><circle id="SvgjsCircle1055" r="27.46049328865896" cx="-912.0797340095756" cy="206.44256987861058" fill="#1dbf92" opacity="0.40226282215430686"></circle><circle id="SvgjsCircle1056" r="426.7316555358304" cx="764.7946412184776" cy="-103.93610259660903" fill="#324fef" opacity="0.0030769136416770593"></circle><circle id="SvgjsCircle1057" r="271.3127845393759" cx="446.38816332465444" cy="-27.129160630498404" fill="#66fc9a" opacity="0.49572851296952447"></circle><circle id="SvgjsCircle1058" r="125.98301831717806" cx="-387.529367939174" cy="386.2991478991506" fill="#1dcccd" opacity="0.4869114718281501"></circle><circle id="SvgjsCircle1059" r="9.864490566277805" cx="310.1742197526155" cy="-149.1114816548431" fill="#65f8e0" opacity="0.027758366335613016"></circle><polygon id="SvgjsPolygon1060" points="287.0154885113943,373.6080735965643 -825.0540148757599,224.2573634718101 -448.577678252434,219.4412501817418" fill="#356a2f" opacity="0.4818079404423642"></polygon><polygon id="SvgjsPolygon1061" points="-683.814861419422,304.7774494584428 -297.4168165197941,-415.4862404383073 133.2524746538893,257.96955559086723" fill="#f13e0d" opacity="0.19490126450192025"></polygon><circle id="SvgjsCircle1062" r="427.2597345332102" cx="509.1747703713572" cy="28.12914039835414" fill="#019bd4" opacity="0.4710327024631571"></circle><circle id="SvgjsCircle1063" r="492.3285873588733" cx="450.34396859018284" cy="166.32292747610643" fill="#604819" opacity="0.4742260929529105"></circle><circle id="SvgjsCircle1064" r="305.39082584532605" cx="-689.7878015427872" cy="366.52746227041825" fill="#fe4663" opacity="0.4999971185902765"></circle><circle id="SvgjsCircle1065" r="30.185914766333035" cx="-542.6270732317615" cy="-372.3154079439861" fill="#c9f138" opacity="0.4080103941337325"></circle><circle id="SvgjsCircle1066" r="64.84899736230221" cx="-537.1148746426915" cy="458.06226210704074" fill="#d76535" opacity="0.024743203660068436"></circle><circle id="SvgjsCircle1067" r="494.81141663238407" cx="850.2489850695786" cy="413.76462433000415" fill="#948d55" opacity="0.045890784659602835"></circle><circle id="SvgjsCircle1068" r="371.2612655975396" cx="789.2012789930391" cy="418.7972769115073" fill="#3f95d3" opacity="0.1811864957460123"></circle><polygon id="SvgjsPolygon1069" points="835.6945740159078,-297.96340606451065 -509.2198594032693,-426.42905135293296 309.81306759231575,-340.90288080543905" fill="#3002f1" opacity="0.47830759494936426"></polygon><polygon id="SvgjsPolygon1070" points="-610.6008467296947,-422.9690287387682 -931.9500201328017,-399.6879254314281 155.56793771827552,16.697836524087506" fill="#d31b9b" opacity="0.1173794364726366"></polygon><polygon id="SvgjsPolygon1071" points="-576.6743437800645,60.41007332511697 -474.4710959237399,-2.892174507191953 -495.35911359198883,-454.0400660185939" fill="#86d7a0" opacity="0.3274890580808092"></polygon><circle id="SvgjsCircle1072" r="156.67740428734734" cx="442.55068173969016" cy="-179.2997125003766" fill="#f9451c" opacity="0.273225122780167"></circle><polygon id="SvgjsPolygon1073" points="-264.4070231330429,-411.45087537935154 -685.118163100371,-381.5713063360062 -821.0448598594678,275.6916018579809" fill="#c3b6b8" opacity="0.15263286290313538"></polygon><polygon id="SvgjsPolygon1074" points="-376.2243145931077,260.31948111515567 678.9432297462374,133.5368377443085 -100.58137363945718,-61.949163109197514" fill="#e6ab13" opacity="0.3117338737632446"></polygon><circle id="SvgjsCircle1075" r="319.1736159951457" cx="-455.2086370031119" cy="-136.81997842750815" fill="#fdab03" opacity="0.1460651696853168"></circle><circle id="SvgjsCircle1076" r="113.10292284995782" cx="650.7193806591024" cy="-268.4534076327369" fill="#facee2" opacity="0.43993263710760955"></circle><circle id="SvgjsCircle1077" r="58.1447267514299" cx="-775.4051271382912" cy="100.32056357376916" fill="#1089e0" opacity="0.09167098476767555"></circle><circle id="SvgjsCircle1078" r="112.74300540924686" cx="599.6983911688503" cy="-226.95918296261453" fill="#1fa325" opacity="0.24594943012263148"></circle><polygon id="SvgjsPolygon1079" points="-184.52403591138648,44.22914575249217 -936.3728424347131,-46.255301902041765 338.19462491303466,401.34811258467323" fill="#d6cc35" opacity="0.3415872141903614"></polygon><circle id="SvgjsCircle1080" r="49.582978922542594" cx="-686.7354792303142" cy="-109.3981403984119" fill="#a71978" opacity="0.4364537057015848"></circle><polygon id="SvgjsPolygon1081" points="-992.6454390280526,294.3830561774106 335.5304495860785,-103.11487156182551 -711.1517133091713,66.90871996026556" fill="#83dbbd" opacity="0.26096203410900887"></polygon><circle id="SvgjsCircle1082" r="94.4716762857537" cx="-471.50474519072725" cy="-438.1343978972112" fill="#bddc0c" opacity="0.3269740889221946"></circle><polygon id="SvgjsPolygon1083" points="690.3150637344838,-303.76824573055103 99.57540226050014,-207.71504877751522 -964.676005816294,-146.11253647772935" fill="#3bf972" opacity="0.4000490660476703"></polygon><polygon id="SvgjsPolygon1084" points="739.0268822176677,13.943182097602175 23.656278394046808,481.7780768103437 -747.6600324965946,-405.66642264139773" fill="#a9879c" opacity="0.46151597312327386"></polygon><circle id="SvgjsCircle1085" r="144.44055157762946" cx="697.0176086344911" cy="-18.00974512440365" fill="#82f3d2" opacity="0.32578643380455496"></circle><polygon id="SvgjsPolygon1086" points="-770.8012517058038,77.5265150238813 760.3307377557358,-173.3144252707981 -912.7265851212867,-283.87753354890674" fill="#9f88b4" opacity="0.09887514382724928"></polygon><circle id="SvgjsCircle1087" r="87.58089307886752" cx="-442.54251670099575" cy="418.9617151090134" fill="#64c87a" opacity="0.08190963947936691"></circle><circle id="SvgjsCircle1088" r="232.8165722494382" cx="-281.7626012869572" cy="-82.56652203334005" fill="#8f50eb" opacity="0.32335446245856225"></circle><circle id="SvgjsCircle1089" r="86.44220258276103" cx="273.66950644700296" cy="-203.76048261476984" fill="#3a7701" opacity="0.42540497997512494"></circle><polygon id="SvgjsPolygon1090" points="-563.496850354896,-495.5272468248808 -44.852661536442156,63.775075401349795 -413.667445746972,-219.9924414409595" fill="#a652b9" opacity="0.243942639771903"></polygon><polygon id="SvgjsPolygon1091" points="-247.71663402993613,-344.30032739714875 234.4774624514746,-145.53779572899805 -452.23568978476965,-403.25917115259546" fill="#9b0cfe" opacity="0.05626887528803548"></polygon><polygon id="SvgjsPolygon1092" points="-718.9237122186278,121.86946332538878 148.00044943227726,-234.07680330941895 -766.0549720374679,344.5778094204936" fill="#662705" opacity="0.08021085687111273"></polygon><circle id="SvgjsCircle1093" r="348.81465809232424" cx="928.0331017160761" cy="27.195841652103468" fill="#d9cc56" opacity="0.4706341122294556"></circle><polygon id="SvgjsPolygon1094" points="132.57817463564243,115.59107943942524 -432.46208477539835,-397.7454166930712 296.53547522490794,-229.7404958374858" fill="#1f8fdc" opacity="0.3040336016498053"></polygon><circle id="SvgjsCircle1095" r="484.4165878599196" cx="-369.537482956531" cy="478.2025585173885" fill="#75374e" opacity="0.26338719562058777"></circle><circle id="SvgjsCircle1096" r="133.41476902175177" cx="20.70084915719849" cy="-68.90513760155102" fill="#d963a2" opacity="0.29674465198625244"></circle><circle id="SvgjsCircle1097" r="304.4855465182036" cx="-653.0372031840193" cy="-14.266416932888774" fill="#c21b11" opacity="0.3246685073405319"></circle><circle id="SvgjsCircle1098" r="149.07224582647882" cx="730.7196194299718" cy="319.42097552613325" fill="#c80c37" opacity="0.21160591698300657"></circle><circle id="SvgjsCircle1099" r="198.8723677544495" cx="284.8794122358288" cy="-144.70467710568056" fill="#c79e27" opacity="0.4487765089725766"></circle><circle id="SvgjsCircle1100" r="400.41835119373616" cx="-527.1108924923471" cy="311.7442889657924" fill="#252b37" opacity="0.07812237820837209"></circle><circle id="SvgjsCircle1101" r="117.69662738925568" cx="-607.723477132994" cy="173.10187924871843" fill="#2ef865" opacity="0.2930562748528781"></circle><polygon id="SvgjsPolygon1102" points="401.9900067780088,-413.85375577325203 977.8335458116917,122.02118987293954 786.8732390009047,-152.89325117330168" fill="#6f6a96" opacity="0.16093233233600712"></polygon><polygon id="SvgjsPolygon1103" points="116.27054995385242,170.9670014134366 929.6920917990428,-463.01982088649487 458.5398566050917,408.7647853441065" fill="#37f2ca" opacity="0.31478412473906947"></polygon><circle id="SvgjsCircle1104" r="31.3596692592345" cx="225.44558714698405" cy="359.69720152800403" fill="#e21e52" opacity="0.13805040728001752"></circle><circle id="SvgjsCircle1105" r="421.7774741256548" cx="402.70574029564045" cy="-190.43548827459244" fill="#b9b5a9" opacity="0.4309950966653143"></circle><circle id="SvgjsCircle1106" r="151.930228667863" cx="966.7056882408081" cy="-446.02747547543873" fill="#dec6f1" opacity="0.24990835736112327"></circle><circle id="SvgjsCircle1107" r="354.90772256562565" cx="806.8416728247362" cy="-366.4921067529639" fill="#c4a5b3" opacity="0.2711920105913952"></circle><circle id="SvgjsCircle1108" r="497.9564730350144" cx="-757.1571137249258" cy="298.644990560746" fill="#c180de" opacity="0.4559381137318491"></circle><polygon id="SvgjsPolygon1109" points="-617.1537465225483,394.96838069139596 63.92436381046309,-289.3296258653502 451.27239759132067,-329.5194848889298" fill="#e330f8" opacity="0.07502355400410654"></polygon></svg>